<?xml version="1.0" standalone="no"?>
<!DOCTYPE svg PUBLIC "-//W3C//DTD SVG 1.1//EN" "http://www.w3.org/Graphics/SVG/1.1/DTD/svg11.dtd" >
<svg>
<metadata>
Created by FontForge 20090914 at Mon Feb  4 13:16:24 2013
 By www-data
Copyright (c) Morice Kastoun, 2009. All rights reserved.
</metadata>
<defs>
<font id="Oceania-Regular" horiz-adv-x="500" >
  <font-face 
    font-family="Oceania"
    font-weight="500"
    font-stretch="normal"
    units-per-em="1000"
    panose-1="2 0 6 3 4 0 0 2 0 4"
    ascent="800"
    descent="-200"
    x-height="535.002"
    cap-height="749"
    bbox="-81 -221 1154 955"
    underline-thickness="20"
    underline-position="-123"
    unicode-range="U+0020-U+FB02"
  />
<missing-glyph horiz-adv-x="548" 
 />
    <glyph glyph-name=".notdef" horiz-adv-x="548" 
 />
    <glyph glyph-name="space" unicode=" " horiz-adv-x="206" 
 />
    <glyph glyph-name="exclam" unicode="!" horiz-adv-x="303" 
d="M191 470l-9 -243h-62l-9 243v263h80v-263zM204 51c0 -18 -4.66699 -32 -14 -42s-22.333 -15 -39 -15c-16 0 -28.833 5 -38.5 15s-14.5 24 -14.5 42c0 17.333 4.83301 30.833 14.5 40.5s22.5 14.5 38.5 14.5s28.833 -4.66699 38.5 -14s14.5 -23 14.5 -41z" />
    <glyph glyph-name="quotedbl" unicode="&#x22;" horiz-adv-x="391" 
d="M159 779l-10 -262h-78l-10 262h98zM330 779l-9 -262h-78l-11 262h98z" />
    <glyph glyph-name="numbersign" unicode="#" horiz-adv-x="573" 
d="M536 524l-16 -85h-92l-36 -204h91l-16 -86h-91l-26 -149h-60l26 149h-123l-26 -149h-60l26 149h-96l16 86h96l36 204h-95l16 85h94l25 137h60l-24 -137h122l24 137h61l-25 -137h93zM368 439h-122l-37 -204h122z" />
    <glyph glyph-name="dollar" unicode="$" horiz-adv-x="573" 
d="M501 209c0.666992 -34 -6.33398 -64.832 -21.001 -92.499s-35.334 -49.5 -62.001 -65.5c-34.667 -20.667 -76.334 -31 -125.001 -31h-16c-16 1.33301 -27.667 2.66602 -35 3.99902l-12 -60h-53l13 68c-37.333 6 -70 9.33301 -98 10v70
c20.667 2 57.334 -2.33301 110.001 -13c4.66699 24 11.834 63.167 21.501 117.5l19.5 111.5c-24 4 -36.667 6 -38 6c-44 9.33301 -77.667 30.333 -101 63s-34 72.334 -32 119.001v20c2 52.667 20.5 96.5 55.5 131.5s78.5 52.167 130.5 51.5c14 0 32.333 -1.33301 55 -4l9 52
l62 2l-12 -63c4 -1.33301 7 -2 9 -2c40 -10.667 69.667 -15.667 89 -15l1 -73c-22 -0.666992 -57 5.66602 -105 18.999c-0.666992 0 -1.66699 0.166992 -3 0.5s-2.66602 0.5 -3.99902 0.5l-47 -247c34.667 -5.33301 62 -11.333 82 -18c32.667 -10 58.667 -27.833 78 -53.5
s29 -56.167 29 -91.5v-17zM228.999 399.001c6.66699 -1.33301 15.332 -2.66699 25.999 -4c30 163.333 45.333 247.333 46 252c-14 2 -28.333 3 -43 3c-34.667 -0.666992 -61.5 -11.334 -80.5 -32.001s-29.833 -49 -32.5 -85v-17c2 -36 8.33301 -62.167 19 -78.5
s32.334 -29.166 65.001 -38.499zM426.997 211v13.998c0 33.333 -11.167 56.833 -33.5 70.5s-53.833 22.834 -94.5 27.501l-45 -234c10 -2 19 -3 27 -3h12c36 -1.33301 67.333 9.33398 94 32.001s40 53.667 40 93z" />
    <glyph glyph-name="percent" unicode="%" horiz-adv-x="864" 
d="M586 679l-262 -679h-55l263 679h54zM312 633c24 -35.333 35.999 -77.667 35.999 -127v-30c0 -49.333 -12 -91.333 -36 -126c-26 -38.667 -61.333 -58 -106 -58h-11c-45.333 0 -81 19.667 -107 59c-23.333 35.333 -35 77 -35 125v30c0 49.333 11.667 91.333 35 126
c26.667 38.667 62.334 58 107.001 58h11c44.667 0 80 -19 106 -57zM136.999 379.999c15.333 -22.667 36.333 -34.001 63 -34.001c28 0 49.667 13 65 39c13.333 22.667 20 52 20 88v36c0 36.667 -6.33301 66.334 -19 89.001c-14 25.333 -36 38 -66 38
c-28.667 0 -50 -13 -64 -39c-12 -20.667 -18.667 -50 -20 -88v-36c0 -39.333 7 -70.333 21 -93zM763.999 330.998c24 -35.333 36.001 -77.333 36.001 -126v-31c0 -49.333 -12 -91 -36 -125c-26 -39.333 -61.333 -59 -106 -59h-11c-44.667 0 -80.334 19.667 -107.001 59
c-23.333 35.333 -35 77 -35 125v31c0 48.667 12 90.667 36 126c26 38.667 61.333 58 106 58h11c44.667 0 80 -19.333 106 -58zM590 78.998c14 -23.333 34.667 -35.001 62 -35.001c29.333 0 51 13 65 39c13.333 22.667 20 52 20 88v37c0 36.667 -6.33301 66.334 -19 89.001
c-14 24.667 -36 37 -66 37c-28.667 0 -50 -13 -64 -39c-12 -21.333 -18.667 -50.333 -20 -87v-37c0 -40 7.33301 -70.667 22 -92z" />
    <glyph glyph-name="ampersand" unicode="&#x26;" horiz-adv-x="670" 
d="M236 -10c40.667 0 80.334 11.001 119.001 33.001s72.667 52.667 102 92l105 -115h104l-167 185c3.33301 9.33301 8.33301 21.666 15 36.999s11.334 26.666 14.001 33.999c0.666992 2 3.16699 8.83301 7.5 20.5l9 24.5c1.66699 4.66699 4.5 11.167 8.5 19.5
s8.16699 15.166 12.5 20.499s8.83301 10 13.5 14c13.333 9.33301 36.333 11.333 69 6v71c-49.333 9.33301 -89 1.33301 -119 -24c-16 -14 -28.667 -29.5 -38 -46.5s-18 -38.333 -26 -64s-14.333 -44.167 -19 -55.5l-75.5 84c-29.667 34 -52.5 59.333 -68.5 76l12.5 7.5
c5 3 8.5 5.16699 10.5 6.5c41.333 25.333 72.166 51.333 92.499 78s30.5 60.667 30.5 102c0 44.667 -16.833 81.834 -50.5 111.501s-73.5 44.5 -119.5 44.5c-46.667 0 -87.334 -15.167 -122.001 -45.5s-52 -68.166 -52 -113.499c0 -58.667 26 -115.667 78 -171
c-46.667 -22 -84 -54.167 -112 -96.5s-41.333 -88.333 -40 -138s19.333 -93.5 54 -131.5c40 -44 90.333 -66 151 -66h1zM231 368.001l178 -198c-21.333 -32 -47.333 -57 -78 -75s-61.667 -27 -93 -27c-38.667 1.33301 -70 15.333 -94 42
c-25.333 31.333 -37 64.166 -35 98.499s14.333 66.333 37 96s51 50.834 85 63.501zM278 684.001c24 0.666992 45.168 -7.83203 63.501 -25.499s27.5 -38.5 27.5 -62.5c0 -18 -2.83301 -34 -8.5 -48s-15.334 -26.833 -29.001 -38.5s-25.5 -20.667 -35.5 -27
s-25.333 -14.833 -46 -25.5c-15.333 17.333 -26.833 31.166 -34.5 41.499s-15 24 -22 41s-10.5 34.5 -10.5 52.5c0 26 9.33301 48 28 66s41 26.667 67 26z" />
    <glyph glyph-name="quotesingle" unicode="'" horiz-adv-x="221" 
d="M160 776l-10 -262h-79l-10 262h99z" />
    <glyph glyph-name="parenleft" unicode="(" horiz-adv-x="345" 
d="M304 -139l-84 -0.000976562c-48 64 -84.5 134.667 -109.5 212s-37.5 155 -37.5 233c0 77.333 12.5 155 37.5 233s61.5 149.333 109.5 214h84c-94.667 -134 -142 -283 -142 -447c0 -161.333 47.333 -309.666 142 -444.999z" />
    <glyph glyph-name="parenright" unicode=")" horiz-adv-x="345" 
d="M272 308c0 -77.333 -12.5 -154.999 -37.5 -232.999s-61.5 -149.333 -109.5 -214h-84c94.667 134 142 283 142 447c0 161.333 -47.333 309.666 -142 444.999h84c48 -64 84.5 -134.667 109.5 -212s37.5 -155 37.5 -233z" />
    <glyph glyph-name="asterisk" unicode="*" horiz-adv-x="427" 
d="M385 658l24 -73l-143 -41l94 -114l-64 -47l-82 122l-82 -122l-65 47l94 114l-143 41l24 73l138 -51l-6 146h79l-5 -146z" />
    <glyph glyph-name="plus" unicode="+" horiz-adv-x="519" 
d="M473 226h-174v-208h-80v208h-174v79h174v208h80v-208h174v-79z" />
    <glyph glyph-name="comma" unicode="," horiz-adv-x="272" 
d="M204 19c0 -42.667 -9.16602 -79 -27.499 -109s-50.5 -60.333 -96.5 -91l-50 54c39.333 26.667 64.166 47.5 74.499 62.5s15.5 34.167 15.5 57.5v15h-12c-10.667 0 -19.5 4 -26.5 12s-10.5 18.667 -10.5 32c0 16.667 5.5 30.167 16.5 40.5s25.833 15.5 44.5 15.5
c22 0 39.5 -7.33301 52.5 -22s19.5 -37 19.5 -67z" />
    <glyph glyph-name="hyphen" unicode="-" horiz-adv-x="250" 
d="M227 228h-204v75h204v-75z" />
    <glyph glyph-name="period" unicode="." horiz-adv-x="272" 
d="M197 51c0 -18 -5.5 -32.167 -16.5 -42.5s-25.833 -15.5 -44.5 -15.5c-18 0 -32.667 5.16699 -44 15.5s-17 24.5 -17 42.5s5.5 32.167 16.5 42.5s25.833 15.5 44.5 15.5c18 0 32.667 -5 44 -15s17 -24.333 17 -43z" />
    <glyph glyph-name="slash" unicode="/" horiz-adv-x="332" 
d="M373 733l-311 -872h-80l311 872h80z" />
    <glyph glyph-name="zero" unicode="0" horiz-adv-x="641" 
d="M90 284c0 -84.667 21.834 -153.332 65.501 -205.999s98.5 -79 164.5 -79c67.333 0 122.666 26.167 165.999 78.5s65 121.166 65 206.499v60c0 87.333 -21.5 156.333 -64.5 207s-98.833 76 -167.5 76c-66.667 0 -121.5 -25.5 -164.5 -76.5s-64.5 -119.833 -64.5 -206.5
v-60zM320.001 68.002c-48.667 0 -86.167 19.335 -112.5 58.002s-39.5 89.667 -39.5 153v70c0 59.333 13 109.166 39 149.499s63.667 60.5 113 60.5c52 0 90.667 -19.833 116 -59.5s38 -89.834 38 -150.501v-70c0 -64.667 -12.833 -116 -38.5 -154s-64.167 -57 -115.5 -57z
" />
    <glyph glyph-name="one" unicode="1" horiz-adv-x="359" 
d="M207 636l61 -30v-606h-75v539l-105 -104l-39 55z" />
    <glyph glyph-name="two" unicode="2" horiz-adv-x="598" 
d="M131 454l-52.999 60c26.667 26.667 56.667 51.834 90 75.501s63 38.167 89 43.5c93.333 19.333 161.666 -1.66699 204.999 -63c27.333 -39.333 38.666 -81.833 33.999 -127.5s-24.667 -88.167 -60 -127.5c-22 -24 -62 -64.167 -120 -120.5s-97.667 -96.5 -119 -120.5h294
l8 -74h-395l-25 69c26 28 76 78.167 150 150.5s123.333 121.5 148 147.5c27.333 28.667 41.333 59.5 42 92.5s-9.33301 59.5 -30 79.5c-19.333 21.333 -45.666 31.166 -78.999 29.499s-64 -13.5 -92 -35.5c-33.333 -26 -62.333 -52.333 -87 -79z" />
    <glyph glyph-name="three" unicode="3" horiz-adv-x="617" 
d="M453 256c48.667 -40 72.9971 -88.333 72.9971 -145v-16c0 -58 -20.833 -106.667 -62.5 -146s-91.834 -58.333 -150.501 -57h-1c-71.333 -0.666992 -147.666 37.333 -228.999 114l52 59c70.667 -67.333 129.667 -101 177 -101c38.667 0 70.834 12.333 96.501 37
s38.5 56 38.5 94v16c0 36 -13.167 66.5 -39.5 91.5s-59.166 37.5 -98.499 37.5h-101v70h99c36.667 0 67.167 11.667 91.5 35s36.5 51.666 36.5 84.999v19c-1.33301 36 -13.166 65 -35.499 87s-51.833 33 -88.5 33c-47.333 0 -104 -28.667 -170 -86l-49 61
c71.333 64.667 144.333 97 219 97c56.667 0 104.667 -18.167 144 -54.5s59 -82.166 59 -137.499v-19c0 -30 -8.5 -59 -25.5 -87s-38.5 -51 -64.5 -69c8 -2.66699 17.667 -8.66699 29 -18z" />
    <glyph glyph-name="four" unicode="4" horiz-adv-x="605" 
d="M552 142l-0.00195312 -73h-90v-174h-77v174h-294l-28 74c8.66699 17.333 25.5 49.166 50.5 95.499l89 165l81.5 152.5c6 10 12.833 19.833 20.5 29.5s17.834 21.334 30.501 35.001s21 22.834 25 27.501h94c-3.33301 -3.33301 -10.166 -10.833 -20.499 -22.5l-23.5 -26.5
c-5.33301 -6 -12 -14 -20 -24s-15.167 -19.5 -21.5 -28.5s-11.833 -18.167 -16.5 -27.5c-5.33301 -10.667 -34.5 -64.334 -87.5 -161.001s-90.833 -168.667 -113.5 -216h234v220h77v-220h90z" />
    <glyph glyph-name="five" unicode="5" horiz-adv-x="625" 
d="M309 -101l14 0.000976562v0c63.333 0 115.666 21.833 156.999 65.5s62 101.5 62 173.5c0 75.333 -15.833 135 -47.5 179s-80.834 66 -147.501 66c-62.667 0 -113.667 -22.333 -153 -67v256h299l6 71h-383v-376c48 -18 73 -27 75 -27
c20.667 23.333 41.334 40.666 62.001 51.999s47 17 79 17c86 0 129 -57.667 129 -173c0 -47.333 -12.5 -86.666 -37.5 -117.999s-59.167 -47 -102.5 -47h-12c-23.333 0 -49.166 9.16699 -77.499 27.5s-52.5 38.166 -72.5 59.499l-57 -56
c67.333 -68.667 136.333 -103 207 -103z" />
    <glyph glyph-name="six" unicode="6" horiz-adv-x="625" 
d="M86 452l-0.000976562 -219c0 -68 20.667 -125.5 62 -172.5s94 -70.5 158 -70.5c71.333 0 128.333 22.5 171 67.5s64 100.833 64 167.5v27c0 72 -22.5 128.5 -67.5 169.5s-97.167 61.5 -156.5 61.5c-27.333 0 -55.833 -6.66699 -85.5 -20s-52.167 -30 -67.5 -50v36
c0 26.667 3.16699 52.834 9.5 78.501s15.833 50.167 28.5 73.5s30.834 42.166 54.501 56.499s51.167 21.5 82.5 21.5c40 0 83.333 -11.333 130 -34h2l30 73c-62 20.667 -117 31 -165 31c-76.667 0 -137.5 -29.5 -182.5 -88.5s-67.5 -128.5 -67.5 -208.5zM163.999 236v93.002
c16.667 24 39 43.5 67 58.5s57.333 22.5 88 22.5c40 0 74 -14.833 102 -44.5s42 -66.834 42 -111.501v-29c1.33301 -51.333 -11.5 -91.833 -38.5 -121.5s-65.167 -44.5 -114.5 -44.5c-43.333 0 -78.5 16.667 -105.5 50s-40.5 75.666 -40.5 126.999z" />
    <glyph glyph-name="seven" unicode="7" horiz-adv-x="549" 
d="M95 470l-59.9971 41.999l78 106c12.667 16.667 29.667 25 51 25l342 -1c1.33301 -5.33301 3.16602 -14.666 5.49902 -27.999s4.16602 -23.333 5.49902 -30l-311 -682h-86l308 669h-244c-12 0 -23 -6.66699 -33 -20c-26.667 -37.333 -45.334 -64.333 -56.001 -81z" />
    <glyph glyph-name="eight" unicode="8" horiz-adv-x="637" 
d="M552 211c0 74 -33.332 131.999 -99.999 173.999c55.333 38.667 83 96.334 83 173.001c0 55.333 -20.333 101.333 -61 138s-91.667 54.667 -153 54c-64.667 -0.666992 -117 -19 -157 -55s-60 -81.667 -60 -137c0 -75.333 27.667 -133 83 -173
c-66.667 -37.333 -100 -95.333 -100 -174c0 -62.667 22.167 -113.5 66.5 -152.5s100.166 -58.5 167.499 -58.5c64 0 118.5 19.667 163.5 59s67.5 90 67.5 152zM341.001 419.999h-45c-30 0 -56.5 12 -79.5 36s-34.5 55.667 -34.5 95c0 37.333 11.667 68.5 35 93.5
s58 37.5 104 37.5c45.333 0 79.333 -12.667 102 -38s34 -56.333 34 -93c0 -40 -11.333 -71.833 -34 -95.5s-50 -35.5 -82 -35.5zM287.001 346.999h64.999c31.333 0 59.333 -13.5 84 -40.5s37 -58.167 37 -93.5c0 -43.333 -13.667 -78.5 -41 -105.5
s-64.666 -40.5 -111.999 -40.5s-85 13.5 -113 40.5s-42 62.167 -42 105.5c0 36 12.5 67.333 37.5 94s53.167 40 84.5 40z" />
    <glyph glyph-name="nine" unicode="9" horiz-adv-x="625" 
d="M539 202l0.00195312 219c0 68 -20.667 125.5 -62 172.5s-94 70.5 -158 70.5c-71.333 0 -128.333 -22.5 -171 -67.5s-64 -100.833 -64 -167.5v-27c0 -72 22.5 -128.5 67.5 -169.5s97.167 -61.5 156.5 -61.5c28 0 56.667 6.66699 86 20s51.666 30 66.999 50v-36
c0 -26.667 -3.16699 -52.834 -9.5 -78.501s-15.833 -50.167 -28.5 -73.5s-30.834 -42.166 -54.501 -56.499s-51.167 -21.5 -82.5 -21.5c-40 0 -83.333 11.333 -130 34h-2v0l-30 -73c62 -20.667 117 -31 165 -31c76.667 0 137.5 29.5 182.5 88.5s67.5 128.5 67.5 208.5z
M461.002 418v-93.002c-16.667 -24 -39 -43.5 -67 -58.5s-57.333 -22.5 -88 -22.5c-40 0 -74 14.833 -102 44.5s-42 66.834 -42 111.501v29c-1.33301 51.333 11.5 91.833 38.5 121.5s65.167 44.5 114.5 44.5c43.333 0 78.5 -16.667 105.5 -50s40.5 -75.666 40.5 -126.999z
" />
    <glyph glyph-name="colon" unicode=":" horiz-adv-x="272" 
d="M197 466c0 -18 -5.5 -32.167 -16.5 -42.5s-25.833 -15.5 -44.5 -15.5c-18 0 -32.667 5.16699 -44 15.5s-17 24.5 -17 42.5s5.5 32.167 16.5 42.5s25.833 15.5 44.5 15.5c18 0 32.667 -5 44 -15s17 -24.333 17 -43zM197 51c0 -18 -5.5 -32.167 -16.5 -42.5
s-25.833 -15.5 -44.5 -15.5c-18 0 -32.667 5.16699 -44 15.5s-17 24.5 -17 42.5s5.5 32.167 16.5 42.5s25.833 15.5 44.5 15.5c18 0 32.667 -5 44 -15s17 -24.333 17 -43z" />
    <glyph glyph-name="semicolon" unicode=";" horiz-adv-x="272" 
d="M204 19c0 -42.667 -9.16602 -79 -27.499 -109s-50.5 -60.333 -96.5 -91l-50 54c39.333 26.667 64.166 47.5 74.499 62.5s15.5 34.167 15.5 57.5v15h-12c-10.667 0 -19.5 4 -26.5 12s-10.5 18.667 -10.5 32c0 16.667 5.5 30.167 16.5 40.5s25.833 15.5 44.5 15.5
c22 0 39.5 -7.33301 52.5 -22s19.5 -37 19.5 -67zM197.001 466c0 -18 -5.5 -32.167 -16.5 -42.5s-25.833 -15.5 -44.5 -15.5c-18 0 -32.667 5.16699 -44 15.5s-17 24.5 -17 42.5s5.5 32.167 16.5 42.5s25.833 15.5 44.5 15.5c18 0 32.667 -5 44 -15s17 -24.333 17 -43z" />
    <glyph glyph-name="less" unicode="&#x3c;" horiz-adv-x="519" 
d="M431 0h-97l-247 266l247 265h97v-10l-237 -253l237 -258v-10z" />
    <glyph glyph-name="equal" unicode="=" horiz-adv-x="519" 
d="M457 109h-395v78h395v-78zM457 351h-395v78h395v-78z" />
    <glyph glyph-name="greater" unicode="&#x3e;" horiz-adv-x="519" 
d="M87 531h97l247 -265l-247 -266h-97v10l237 254l-237 257v10z" />
    <glyph glyph-name="question" unicode="?" horiz-adv-x="458" 
d="M408 596c0 -28.667 -6.33496 -53.4961 -19.002 -74.4961s-28 -38.667 -46 -53l-54.5 -44c-18.333 -15 -34.166 -34.5 -47.499 -58.5s-20.333 -52.333 -21 -85l-2 -54h-70v77c0 30 5.83301 57.667 17.5 83s25.834 46.666 42.501 63.999s33.334 33.666 50.001 48.999
s30.834 31.166 42.501 47.499s17.5 33.166 17.5 50.499c0 33.333 -13.833 55 -41.5 65s-60.334 7.16699 -98.001 -8.5s-69.834 -40.5 -96.501 -74.5l-29 92c44 42 94.167 67.5 150.5 76.5s104.5 -0.333008 144.5 -28s60 -69.167 60 -124.5zM249.998 50.0039
c0 -17.333 -5.16797 -30.833 -15.501 -40.5s-25.166 -14.5 -44.499 -14.5c-18 0 -32.167 4.83301 -42.5 14.5s-15.5 23.167 -15.5 40.5c0 18 5.33301 31.833 16 41.5s25 14.5 43 14.5c17.333 0 31.5 -4.83301 42.5 -14.5s16.5 -23.5 16.5 -41.5z" />
    <glyph glyph-name="at" unicode="@" horiz-adv-x="944" 
d="M881 392c0 -95.333 -24.1689 -171.002 -72.502 -227.002s-102.5 -84 -162.5 -84c-52.667 0 -86 18 -100 54h-4c-57.333 -36 -103.333 -54 -138 -54c-38 0 -68.167 11.833 -90.5 35.5s-33.5 59.5 -33.5 107.5c0 84 19.333 152.667 58 206s86 80 142 80
c40 0 79 -10.333 117 -31l5 24h76l-54 -308c-2 -11.333 -3 -18.666 -3 -21.999c0 -20.667 13 -31 39 -31c38 0 72.667 22.5 104 67.5s47 105.5 47 181.5c0 192 -101.667 288 -305 288c-113.333 0 -203.666 -38.833 -270.999 -116.5s-101 -183.5 -101 -317.5
c0 -110 24 -192.167 72 -246.5s121.333 -81.5 220 -81.5c56 0 111 10.333 165 31l8 -66c-60 -19.333 -119 -29 -177 -29c-117.333 0 -206.5 32.833 -267.5 98.5s-91.5 163.5 -91.5 293.5c0 156 40.833 278 122.5 366s188.834 132 321.501 132c116 0 207.333 -29.667 274 -89
s100 -146.666 100 -261.999zM543.998 185.998l43 241c-32 16 -62 24 -90 24c-36.667 0 -68.167 -21.167 -94.5 -63.5s-39.5 -95.5 -39.5 -159.5c0 -55.333 23.333 -83 70 -83c27.333 0 64.333 13.667 111 41z" />
    <glyph glyph-name="A" unicode="A" horiz-adv-x="609" 
d="M267 749h80.999l151 -450.5l77.5 -228.5c13 -38 20.833 -61.333 23.5 -70h-83l-40.5 117c-16.333 48.667 -30.166 87.667 -41.499 117h-261l-80 -234h-82zM197.999 308h217l-104 319l-4 32l-4 -32z" />
    <glyph glyph-name="B" unicode="B" horiz-adv-x="646" 
d="M392 0l1 0.00195312c60 -1.33301 108.5 18.167 145.5 58.5s55.5 90.166 55.5 149.499c-1.33301 38 -13 73.167 -35 105.5s-49.667 54.166 -83 65.499c62 36.667 93 93.667 93 171c0 58 -20.333 105.5 -61 142.5s-89 55.833 -145 56.5h-255v-749h284zM387 71.002h-201v266
h194c40 0.666992 72 -11.5 96 -36.5s36.333 -55.833 37 -92.5c-1.33301 -42 -12.333 -75.333 -33 -100s-51.667 -37 -93 -37zM368 408.002l-181.999 -0.000976562v269h180c36 -1.33301 65.333 -13.666 88 -36.999s34 -54.333 34 -93c0 -39.333 -11.333 -72.333 -34 -99
s-51.334 -40 -86.001 -40z" />
    <glyph glyph-name="C" unicode="C" horiz-adv-x="590" 
d="M330 -5c86 0.666992 161.001 27.3301 225.001 79.9971l-41 66c-48 -52 -108.333 -77 -181 -75c-50.667 1.33301 -94.334 21.333 -131.001 60s-55 94.334 -55 167.001v157c0 72.667 18.167 129.334 54.5 170.001s80.166 61 131.499 61
c62.667 0 117.334 -21.667 164.001 -65l50 57v0c-56.667 52.667 -128 79 -214 79c-72.667 0 -134.834 -26.833 -186.501 -80.5s-77.5 -127.5 -77.5 -221.5v-157c0 -84.667 24.333 -155.667 73 -213s111.334 -85.666 188.001 -84.999z" />
    <glyph glyph-name="D" unicode="D" horiz-adv-x="668" 
d="M516 671c50 -57.333 75 -132.333 75 -225v-147c0 -92 -25 -166.333 -75 -223c-44.667 -48.667 -105 -74 -181 -76h-251v750h251c76 -2 136.333 -28.333 181 -79zM510 299v147c-3.33301 72.667 -18.333 129 -45 169s-70.667 60.333 -132 61h-172v-603h172
c61.333 0.666992 105.333 20.5 132 59.5s41.667 94.5 45 166.5z" />
    <glyph glyph-name="E" unicode="E" horiz-adv-x="594" 
d="M100 749v-749h431l-10 76h-344v261h317v75h-317v262h348v75v0h-425z" />
    <glyph glyph-name="F" unicode="F" horiz-adv-x="546" 
d="M108 0h1h77v344h307v75h-307v255h333v76v0h-411v-750z" />
    <glyph glyph-name="G" unicode="G" horiz-adv-x="673" 
d="M350 -12c71.333 0 130.831 21.832 178.498 65.499s71.5 98.5 71.5 164.5v171h-272l10 -72h184v-94c0.666992 -52 -16.833 -92.5 -52.5 -121.5s-75.5 -43.5 -119.5 -43.5c-54 0 -99.5 20 -136.5 60s-55.5 96.667 -55.5 170v169c0 68.667 17.5 123.667 52.5 165
s79.833 62 134.5 62c76.667 0 139.334 -26.333 188.001 -79l46 63v0c-63.333 58 -141.333 87 -234 87c-77.333 0 -141.166 -28 -191.499 -84s-75.5 -127.333 -75.5 -214v-169c0 -87.333 25.333 -159.166 76 -215.499s116 -84.5 196 -84.5z" />
    <glyph glyph-name="H" unicode="H" horiz-adv-x="699" 
d="M97 0h78v332h357v-332h78v749h-78v-344h-357v344h-78v-749z" />
    <glyph glyph-name="I" unicode="I" horiz-adv-x="294" 
d="M108 749v-749h78v0v1v0v1v0v1v1v0v1v1v0v1v1v1v0v1v1v1v1v1v1v1v1v1v1v1v1v1v1v1v1v1v1v1v1v1v1v1v1v1v1v1v1v1v1v1v1v1v1v1v1v1v1v1v1v1v1v1v1v1v1v1v1v1v1v1v1v1v1v1v1v1v1v1v1v1v1v1v1v1v1v1v1v1v1v1v1v1v1v1v1v1v1v1v1v1v1v1v1v1v1v1v1v1v1v1v1v1v1v1v1v1v1v1v1v1v1
v1v1v1v1v1v1v1v1v1v1v1v1v1v1v1v1v1v1v1v1v1v1v1v1v2v1v1v1v1v1v1v1v1v1v1v2v1v1v1v1v1v1v1v2v1v1v1v1v1v1v2v1v1v1v1v1v1v2v1v1v1v1v2v1v1v1v1v1v2v1v1v1v1v2v1v1v1v2v1v1v1v1v2v1v1v1v2v1v1v1v2v1v1v1v2v1v1v1v2v1v1v2v1v1v1v2v1v1v2v1v1v1v2v1v1v2v1v1v2v1v1v2v1v1v2v1v1
v2v1v1v2v1v1v2v1v1v2v1v1v2v1v2v1v1v2v1v1v2v1v2v1v1v2v1v2v1v1v2v1v2v1v1v2v1v2v1v2v1v1v2v1v2v1v2v1v1v2v1v2v1v2v1v2v1v2v1v1v2v1v2v1v2v1v2v1v2v1v2v1v2v1v2v1v2v1v2v1v2v1v2v1v2v1v2v1v2v1v2v1v2v1v2v2v1v2v1v2v1v2v1v2v1v2v2v1v2v1v2v1v2v1v2v2v1v2v1v2v2v1v2v1v2v1v2
v2v1v2v1v2v2v1v2v2v1v2v1v2v2v1v2v1v2v2v1v2v2v1v2v2v1v2v2v1v2v1v2v2v1v2v2v1v2v2v1v2v2v1v2v2v1v2v2v2v1v2v2v1v2v2v1v2v2v2v1v2v2v1v2v2v1v2v2v2v1v2v2v2v1v2v2v2v1v2v2v1v2v2v2v1v2v2v2v2v1v2v2v2v1v2v2v2v1v2v2v2v2v1v2v2v2v2v1v2v2v2v2v1v2v2v2v2v1v2v2v2v2v2v1v2v2v2
v2v2v1v2v2v2v2v2v1v2v2v2v2v2v2v2v1v2v2v2v2v2v2v2v1v2v2v2v2v2v2v2v2v2v1v2v2v2v2v2v9h-78z" />
    <glyph glyph-name="J" unicode="J" horiz-adv-x="303" 
d="M191 749v-718.998c0 -138.667 -60 -196.667 -180 -174v69c34 -8 59.833 -5.5 77.5 7.5s26.5 39.167 26.5 78.5v19.5c0 10.333 -0.166992 29.166 -0.5 56.499s-0.5 64.666 -0.5 111.999v214.5v335.5h77z" />
    <glyph glyph-name="K" unicode="K" horiz-adv-x="658" 
d="M628 74c2 -22 3.33301 -45 4 -69c-13.333 -7.33301 -28 -11 -44 -11c-34.667 0 -65 19.333 -91 58c-34.667 52 -75.667 117.667 -123 197l-63 101l-43 -53l-51 -63.5c-14.667 -18.333 -25.667 -32.5 -33 -42.5v-59v-95.5c0 -27 0 -39.167 0 -36.5h-76v749h76v-445
l171.5 212.5l187.5 232.5h87l-267 -339c91.333 -154 155 -258.333 191 -313c8 -12.667 18.333 -21.167 31 -25.5s27 -3.5 43 2.5z" />
    <glyph glyph-name="L" unicode="L" horiz-adv-x="549" 
d="M108 0h412l13 73h-346v676h-79v-749z" />
    <glyph glyph-name="M" unicode="M" horiz-adv-x="837" 
d="M621 749h127v-749h-79v657l-212 -636h-80l-211 636v-657h-78v749h128l201 -620z" />
    <glyph glyph-name="N" unicode="N" horiz-adv-x="711" 
d="M527 749h78v-749h-79l-344 605v-605h-78v749h81l342 -600v600z" />
    <glyph glyph-name="O" unicode="O" horiz-adv-x="703" 
d="M69 447l1 -149c0 -94 26 -168.833 78 -224.5s118.333 -83.5 199 -83.5c80 0 146.333 28.167 199 84.5s79 131.5 79 225.5v147c0 95.333 -26.5 170.833 -79.5 226.5s-119.833 83.5 -200.5 83.5s-146.667 -27.667 -198 -83s-77.333 -131 -78 -227zM150 305
l-0.000976562 136.001c0 72.667 16.833 131.667 50.5 177s82.167 68 145.5 68c64.667 0 113.834 -22.667 147.501 -68s50.167 -104.333 49.5 -177v-135c0.666992 -73.333 -15.5 -132.333 -48.5 -177s-81.5 -67 -145.5 -67c-64.667 0 -114 22.167 -148 66.5
s-51 103.166 -51 176.499z" />
    <glyph glyph-name="P" unicode="P" horiz-adv-x="629" 
d="M108 0h78v295h166c63.333 0 115.5 23 156.5 69s61.167 100.667 60.5 164c0.666992 60 -19 112 -59 156s-90.667 65.667 -152 65h-250v-749zM350 368l-164 -0.000976562v308h170c40 0.666992 71.833 -13.833 95.5 -43.5s36.167 -64.5 37.5 -104.5
c0 -43.333 -12.833 -80.666 -38.5 -111.999s-59.167 -47.333 -100.5 -48z" />
    <glyph glyph-name="Q" unicode="Q" horiz-adv-x="691" 
d="M549 75c-33.333 -36 -80 -59.6641 -140 -70.9971c6 -6 16 -18.667 30 -38c16 -20.667 27.667 -33.334 35 -38.001c9.33301 -6.66699 21.333 -10.834 36 -12.501s29.334 1.16602 44.001 8.49902l-1 -71c-32.667 -12 -64.667 -10.667 -96 4
c-21.333 10.667 -41.333 26.667 -60 48c-8 9.33301 -18.333 24 -31 44s-23.667 33 -33 39c-6 4 -26 9 -60 15c-68.667 15.333 -119.834 48.5 -153.501 99.5s-50.5 116.167 -50.5 195.5v167c0 88.667 21.833 160.334 65.5 215.001s106.167 83 187.5 85
c4 0.666992 11.667 1 23 1s19 -0.333008 23 -1c81.333 -2 143.833 -30.333 187.5 -85s65.5 -126.334 65.5 -215.001v-167c0 -94.667 -24 -169 -72 -223zM366 72.0029c117.333 4.66699 176 79.334 176 224.001v171c0 147.333 -58.667 222 -176 224h-42
c-117.333 -2 -176 -76.667 -176 -224v-171c0 -144.667 58.667 -219.334 176 -224.001h42z" />
    <glyph glyph-name="R" unicode="R" horiz-adv-x="650" 
d="M589 71l5 -70l-5 -1c-3.33301 -1.33301 -7.83301 -2.66602 -13.5 -3.99902s-11.834 -2 -18.501 -2c-38.667 0 -71.667 18.333 -99 55c-8 10.667 -31 54.334 -69 131.001c-9.33301 19.333 -17.333 34.833 -24 46.5s-15.167 24.5 -25.5 38.5s-21.166 24.5 -32.499 31.5
s-23.333 10.833 -36 11.5h-97v-308h-78v750h260c61.333 0 111.666 -21.5 150.999 -64.5s59 -94.167 59 -153.5c0 -53.333 -16.167 -100.333 -48.5 -141s-75.166 -65.334 -128.499 -74.001c7.33301 -6.66699 16 -17.334 26 -32.001c14.667 -22.667 32.667 -55.5 54 -98.5
s38 -74.167 50 -93.5c7.33301 -12 17.5 -20 30.5 -24s26.167 -3.33301 39.5 2zM174 676l0.000976562 -294h175c40.667 0 74 15 100 45s39 65.333 39 106c0 38 -12.333 71.333 -37 100s-56.334 43 -95.001 43h-182z" />
    <glyph glyph-name="S" unicode="S" horiz-adv-x="614" 
d="M93 117l-10.001 -84.002c79.333 -30 153.333 -45 222 -45c61.333 0 113.5 12.5 156.5 37.5s70.833 63.167 83.5 114.5c12.667 48 9.5 93.833 -9.5 137.5s-56.5 75.5 -112.5 95.5c-4.66699 2 -64.667 20.667 -180 56c-36 10.667 -62.667 29.5 -80 56.5
s-21.666 59.5 -12.999 97.5c8 31.333 25.667 55.833 53 73.5s60 27.5 98 29.5c36.667 2 74.334 -3 113.001 -15s70.667 -27.333 96 -46l5 80c-33.333 20.667 -73.5 35 -120.5 43s-93 9 -138 3s-85.167 -22.667 -120.5 -50s-57.333 -63.666 -66 -108.999
c-10 -54 -3 -101.167 21 -141.5s63.667 -68.833 119 -85.5c12.667 -4 30.5 -9.16699 53.5 -15.5s43.333 -12.166 61 -17.499s34.167 -10.666 49.5 -15.999c69.333 -25.333 100.666 -72 93.999 -140c-4 -40.667 -20.167 -70.834 -48.5 -90.501s-62.333 -28.834 -102 -27.501
s-79 7.33301 -118 18s-74.5 24.334 -106.5 41.001z" />
    <glyph glyph-name="T" unicode="T" horiz-adv-x="559" 
d="M239 0h78v680h212v69h-501v-69v0v0v0v0h1v0v0h1v0h1v0h1v0h1h1v0h1h1h1h1h1h1h1h1h1h1h1h1h1h1h1h1h1h1h1h1h1h1h1h1h1h1h1h1h1h1h1h1h1h1h1h1h1h1h1h1h1h1h1h1h1h1h1h1h1h1h1h1h1h1h1h1h1h2h1h1h1h1h1h1h1h2h1h1h1h1h1h1h2h1h1h1h1h2h1h1h1h1h2h1h1h1h1h2h1h1h1h2h1h1h1
h2h1h1h1h2h1h1h2h1h1h1h2h1h1h2h1h1h2h1h1h1h2h1h1h2h1h1h2h1h1h2h1h1h2h1h1h2h1h1h2h1h1h2h1h1h1h2h1h1h2h1h1h2h1h1h2h1h1h1h2h1h1h2h1h1h1h2h1h1h1h1h2h9v0v-680z" />
    <glyph glyph-name="U" unicode="U" horiz-adv-x="730" 
d="M103 272c0 -83.333 25.499 -150.167 76.499 -200.5s114.833 -75.5 191.5 -75.5c72 0 133.333 25.333 184 76s76 116.667 76 198v479h-78v-476c0 -60.667 -16.667 -110.167 -50 -148.5s-77.666 -57.5 -132.999 -57.5c-58 0 -104 19.167 -138 57.5s-51 87.833 -51 148.5
v476h-78v0v-477z" />
    <glyph glyph-name="V" unicode="V" horiz-adv-x="640" 
d="M527 749h83l-233 -749h-113l-234 749h84l206 -666z" />
    <glyph glyph-name="W" unicode="W" horiz-adv-x="891" 
d="M798 749h82l-174 -749h-112l-145 585l-134 -585h-112l-189 749h82l165 -658l146 635h81l158 -635z" />
    <glyph glyph-name="X" unicode="X" horiz-adv-x="641" 
d="M633 6l-2.00098 69.002c-27.333 -10.667 -52.666 0.666016 -75.999 33.999c-9.33301 12.667 -21.833 31 -37.5 55l-65.5 102l-76 117l139.5 215.5l97.5 150.5h-95l-82.5 -130l-105.5 -166l-97.5 150l-95.5 146h-95c5.33301 -8.66699 37.5 -57.167 96.5 -145.5
l146.5 -221.5l-246 -382h95l85.5 135.5l111.5 176.5c70.667 -106.667 121 -184.334 151 -233.001c32.667 -48.667 64.667 -75.667 96 -81c22 -4 40.333 -1.33301 55 8z" />
    <glyph glyph-name="Y" unicode="Y" horiz-adv-x="547" 
d="M461 749l85.999 0.000976562c-38.667 -73.333 -91 -178 -157 -314l-25 -48.5c-12.667 -24.333 -22 -43.5 -28 -57.5c-16 -36 -24 -72.333 -24 -109v-220h-78v221c0 36 -6.66699 69.333 -20 100l-15 31l-20 42.5c-6.66699 14.333 -14 29.166 -22 44.499
c-6.66699 12.667 -31.167 62.167 -73.5 148.5s-69.166 140.166 -80.499 161.499h86l67.5 -137l68.5 -139c22 -46 38 -85.667 48 -119c8 28.667 24.333 67.334 49 116.001l48.5 97.5l48.5 99z" />
    <glyph glyph-name="Z" unicode="Z" horiz-adv-x="594" 
d="M553 674l-187.5 -271l-225.5 -328h408v-75h-473l-23 92l402 581h-367l-18 76h463z" />
    <glyph glyph-name="bracketleft" unicode="[" horiz-adv-x="345" 
d="M314 -139h-207v872h207l-8 -74h-106v-724h106z" />
    <glyph glyph-name="backslash" unicode="\" horiz-adv-x="355" 
d="M373 -139h-80l-311 872h80z" />
    <glyph glyph-name="bracketright" unicode="]" horiz-adv-x="345" 
d="M31 733h207v-872h-207l8 74h106v724h-106z" />
    <glyph glyph-name="asciicircum" unicode="^" horiz-adv-x="519" 
d="M435 487h-80l-97 233l-96 -233h-78v9l113 257h125l113 -257v-9z" />
    <glyph glyph-name="underscore" unicode="_" 
d="M468 -141h-436v65h436v-65z" />
    <glyph glyph-name="grave" unicode="`" 
d="M351 602h-79l-124 151h108l95 -142v-9z" />
    <glyph glyph-name="a" unicode="a" horiz-adv-x="578" 
d="M419 0h76.0039v327c-0.666992 64 -18.667 115 -54 153s-84.333 57 -147 57c-40.667 0 -78.834 -5.83301 -114.501 -17.5s-62.5 -24.167 -80.5 -37.5c12.667 -36.667 21 -60.334 25 -71.001c52 39.333 107.667 59 167 59c85.333 0 128 -47.667 128 -143v-49
c-14.667 14.667 -35.834 27.834 -63.501 39.501s-58.5 17.5 -92.5 17.5c-60.667 0 -108.334 -14.5 -143.001 -43.5s-52 -70.5 -52 -124.5c0 -52 17.5 -93.333 52.5 -124s80.167 -46 135.5 -46c57.333 0 111.666 19.333 162.999 58v-55zM143.004 168
c0 66 44.334 98.998 133.001 98.998c48 0 90.667 -15 128 -45c10.667 -9.33301 16 -18.666 16 -27.999v-45c0 -9.33301 -5.33301 -19.333 -16 -30c-40.667 -37.333 -83.334 -55.666 -128.001 -54.999c-88.667 1.33301 -133 36 -133 104z" />
    <glyph glyph-name="b" unicode="b" horiz-adv-x="635" 
d="M548 318v-113c0 -59.333 -20.167 -108 -60.5 -146s-88.833 -57.667 -145.5 -59c-82 -2 -137.667 21.667 -167 71l1 -71h-76v725l76 24v-293c14 22 36.333 40.833 67 56.5s64.334 23.5 101.001 23.5c55.333 0 103.166 -20.833 143.499 -62.5s60.5 -93.5 60.5 -155.5z
M320 68c46 0 82.833 13.833 110.5 41.5s41.5 62.834 41.5 105.501v108c0 37.333 -13.5 70.166 -40.5 98.499s-60.5 42.5 -100.5 42.5c-46 0 -83.333 -14.333 -112 -43s-43 -61 -43 -97v-110c-0.666992 -42.667 12.333 -77.667 39 -105s61.667 -41 105 -41z" />
    <glyph glyph-name="c" unicode="c" horiz-adv-x="506" 
d="M458 49c-4.66699 -4 -11.6689 -8.83105 -21.002 -14.498s-29.666 -13.334 -60.999 -23.001s-64 -14.5 -98 -14.5c-64 0 -115.833 20.167 -155.5 60.5s-59.5 94.5 -59.5 162.5v94c0 64.667 20.167 118 60.5 160s91.833 63 154.5 63c63.333 0 120 -14.333 170 -43
c-2 -7.33301 -5.5 -19 -10.5 -35s-8.5 -27.667 -10.5 -35c-53.333 30 -102.333 45 -147 45c-42.667 0 -76.5 -15 -101.5 -45s-37.5 -66.667 -37.5 -110v-94c0 -46.667 13.5 -84 40.5 -112s59.833 -42 98.5 -42c60 0 112.333 18 157 54
c0.666992 -2.66699 2.83398 -10.334 6.50098 -23.001s7.16699 -23.667 10.5 -33z" />
    <glyph glyph-name="d" unicode="d" horiz-adv-x="617" 
d="M63 203l0.00292969 113c0 62 20.167 114 60.5 156s88.166 63 143.499 63c36 0 69.667 -8 101 -24s53.666 -34.667 66.999 -56v276l76 18v-749h-76l1 70c-30.667 -49.333 -86.334 -73 -167.001 -71c-56.667 1.33301 -105.167 20.833 -145.5 58.5s-60.5 86.167 -60.5 145.5
zM139.003 214c0 -42.667 13.834 -77.833 41.501 -105.5s64.5 -41.5 110.5 -41.5c44 0 79.167 13.5 105.5 40.5s39.166 62.167 38.499 105.5v109c0 36 -14.167 68.333 -42.5 97s-65.833 43 -112.5 43c-40 0 -73.5 -14 -100.5 -42s-40.5 -60.667 -40.5 -98v-108z" />
    <glyph glyph-name="e" unicode="e" horiz-adv-x="576" 
d="M300 -5c-64.667 0 -118.832 17.167 -162.499 51.5s-65.5 88.833 -65.5 163.5v99c0 62 20.5 115.333 61.5 160s95.5 67 163.5 67c57.333 0 106.833 -18.167 148.5 -54.5s62.5 -80.5 62.5 -132.5c0 -82 -56.333 -123 -169 -123h-190v-39c0 -42 14.333 -73.167 43 -93.5
s66 -30.5 112 -30.5c63.333 0 123.666 22 180.999 66c0 -6 -1.33301 -33 -4 -81c-14 -12 -38.5 -23.833 -73.5 -35.5s-70.833 -17.5 -107.5 -17.5zM296.002 469c-39.333 0 -73.667 -13.832 -103 -41.499s-44.333 -61.834 -45 -102.501v-37h178c70.667 0 106 22 106 66
c0 29.333 -11.667 55.833 -35 79.5s-57 35.5 -101 35.5z" />
    <glyph glyph-name="f" unicode="f" horiz-adv-x="348" 
d="M253 682c-58.667 -4.66699 -88 -42.334 -88 -113.001v-34h178v-61h-178v-474h-74v474h-68v61h68v38c2 54.667 18 97.834 48 129.501s70.667 47.834 122 48.501l85 -7l-2 -72c-4 1.33301 -9.33301 2.66602 -16 3.99902s-18.167 3 -34.5 5s-29.833 2.33301 -40.5 1z" />
    <glyph glyph-name="g" unicode="g" horiz-adv-x="585" 
d="M517 535l0.000976562 -549.001c0 -58 -20.667 -104.833 -62 -140.5s-88 -53.5 -140 -53.5c-74 0 -137.667 13.333 -191 40l8 78c63.333 -35.333 121.666 -53 174.999 -53c34.667 0 65.667 10.833 93 32.5s41 47.834 41 78.501v108c-8.66699 -18 -29 -35.5 -61 -52.5
s-67.333 -25.5 -106 -25.5c-53.333 0 -100.833 19 -142.5 57s-62.5 88 -62.5 150v134c0 56 20 102.833 60 140.5s87.333 56.5 142 56.5c40.667 0 75.5 -7.5 104.5 -22.5s50.833 -32.833 65.5 -53.5v75h76zM293.001 65.999c38.667 0 73 14.334 103 43.001s45 63.667 45 105
v103c0 44 -15 80 -45 108s-65.333 42 -106 42c-41.333 0 -76 -13.833 -104 -41.5s-42 -63.834 -42 -108.501v-105c0 -42.667 14 -77.667 42 -105s63.667 -41 107 -41z" />
    <glyph glyph-name="h" unicode="h" horiz-adv-x="609" 
d="M516 0v0.999023v310c0 68 -17.333 122.833 -52 164.5s-80.667 62.5 -138 62.5c-29.333 0 -58.333 -6.83301 -87 -20.5s-52 -33.5 -70 -59.5v93v198l-76 -14v-735h76v313c0 45.333 13.667 81.833 41 109.5s61 41.5 101 41.5c40.667 0 72.5 -13.667 95.5 -41
s34.5 -64.666 34.5 -111.999v-311h75z" />
    <glyph glyph-name="i" unicode="i" horiz-adv-x="276" 
d="M176 0v538l-76 -10v-528h76zM138 627h4c12.667 0 23.334 4.5 32.001 13.5s13 20.167 13 33.5c0 12.667 -4.33301 23.5 -13 32.5s-19.334 13.5 -32.001 13.5h-2h-5c-12.667 0 -23.667 -4.5 -33 -13.5s-14 -19.833 -14 -32.5c0 -13.333 4.66699 -24.5 14 -33.5
s20.333 -13.5 33 -13.5h3z" />
    <glyph glyph-name="j" unicode="j" horiz-adv-x="304" 
d="M201 538l-0.00195312 -551c0 -66 -16.167 -116.833 -48.5 -152.5s-75.833 -47.5 -130.5 -35.5v70c36.667 -6 62.834 0.333008 78.501 19s23.834 48 24.501 88v42v510zM164.998 627h2c12.667 0 23.334 4.5 32.001 13.5s13 20.167 13 33.5c0 12.667 -4.33301 23.5 -13 32.5
s-19.334 13.5 -32.001 13.5h-4h-3c-12.667 0 -23.667 -4.5 -33 -13.5s-14 -19.833 -14 -32.5c0 -13.333 4.5 -24.5 13.5 -33.5s20.167 -13.5 33.5 -13.5h5z" />
    <glyph glyph-name="k" unicode="k" horiz-adv-x="573" 
d="M552 1l-0.00195312 66.001c-23.333 -6 -42.666 3 -57.999 27c-20.667 30.667 -67.667 107.667 -141 231l102 107c54 56 86.333 90.667 97 104h-90l-286 -292v490l-76 -12v-722h76v151c68.667 65.333 110.334 105.666 125.001 120.999c24 -43.333 68 -117.333 132 -222
c14 -22.667 31.5 -38.5 52.5 -47.5s43.167 -9.5 66.5 -1.5z" />
    <glyph glyph-name="l" unicode="l" horiz-adv-x="274" 
d="M176 0v750l-76 -11v-739h76z" />
    <glyph glyph-name="m" unicode="m" horiz-adv-x="895" 
d="M805 0l0.000976562 357.001c0 49.333 -15.833 91.666 -47.5 126.999s-71.834 53 -120.501 53c-43.333 0 -80.5 -9.83301 -111.5 -29.5s-52.833 -40.834 -65.5 -63.501c-10 24 -27.833 45.5 -53.5 64.5s-58.834 28.5 -99.501 28.5
c-25.333 0 -52.666 -6.83301 -81.999 -20.5s-50.333 -30.5 -63 -50.5v72l-76 -11v-527h76v357c0 32.667 14 59.334 42 80.001s57 31 87 31c32 0 59.667 -10.5 83 -31.5s35 -48.833 35 -83.5v-353h73v344c0 34.667 13 63.667 39 87s57 35 93 35
c33.333 0 60.5 -11.5 81.5 -34.5s31.5 -52.167 31.5 -87.5v-344h78z" />
    <glyph glyph-name="n" unicode="n" horiz-adv-x="604" 
d="M519 0l-0.000976562 1v312c0 62.667 -17.167 115.667 -51.5 159s-80.5 65 -138.5 65c-66.667 0 -123 -24.667 -169 -74v74l-76 -15v-522h76v324c0 42 14 76.333 42 103s61.333 40 100 40s71.834 -12.667 99.501 -38s41.5 -58.333 41.5 -99v-330h76z" />
    <glyph glyph-name="o" unicode="o" horiz-adv-x="609" 
d="M311 -4c66.667 0 121.334 22.168 164.001 66.501s64 101.166 64 170.499v63c0 67.333 -21.667 124.5 -65 171.5s-98.333 70.5 -165 70.5c-70.667 0 -128 -23.167 -172 -69.5s-66 -103.5 -66 -171.5v-59c0 -72.667 21.667 -131.167 65 -175.5s101.666 -66.5 174.999 -66.5
zM307 471.001c48.667 0 86.834 -15.998 114.501 -47.998s41.5 -71 41.5 -117v-78c0 -48.667 -13.833 -88.334 -41.5 -119.001s-65.834 -46 -114.501 -46c-48 0 -86.667 15.5 -116 46.5s-44 70.5 -44 118.5v78c0 45.333 14.667 84.166 44 116.499s68 48.5 116 48.5z" />
    <glyph glyph-name="p" unicode="p" horiz-adv-x="583" 
d="M145 76l0.000976562 -276l-75 -8v733l75 11v-82c15.333 22 37.5 41.333 66.5 58s63.5 25 103.5 25c56.667 0 104.667 -20.167 144 -60.5s59 -89.5 59 -147.5v-114c0 -64.667 -19.667 -117 -59 -157s-88.333 -60 -147 -60c-38.667 0 -73.834 8.5 -105.501 25.5
s-52.167 34.5 -61.5 52.5zM145.001 213c0 -41.333 15 -76.167 45 -104.5s64.333 -42.5 103 -42.5c44.667 0 80.667 12.833 108 38.5s41 61.5 41 107.5v105c0 48 -13.667 85.167 -41 111.5s-62.333 39.5 -105 39.5c-40.667 0 -76 -14.167 -106 -42.5s-45 -64.5 -45 -108.5
v-104z" />
    <glyph glyph-name="q" unicode="q" horiz-adv-x="604" 
d="M512 -189l-75.999 -18.001v286c-8.66699 -18 -28.834 -35.5 -60.501 -52.5s-67.167 -25.5 -106.5 -25.5c-54 0 -101.833 18.833 -143.5 56.5s-62.5 87.834 -62.5 150.501v131c0 56 20.167 103 60.5 141s87.833 57 142.5 57c40 0 74.5 -8 103.5 -24
s51.167 -34.667 66.5 -56v68l76 12v-726zM288.001 68.999c38.667 0 73 14.168 103 42.501s45 63.166 45 104.499v101c0 44 -15 80.167 -45 108.5s-65.333 42.5 -106 42.5c-42 0 -76.833 -14 -104.5 -42s-41.5 -64.333 -41.5 -109v-102c0 -43.333 14 -78.5 42 -105.5
s63.667 -40.5 107 -40.5z" />
    <glyph glyph-name="r" unicode="r" horiz-adv-x="402" 
d="M100 0l-0.000976562 524l74 11v-90l3 11c28.667 53.333 73.334 80 134.001 80c26 0 45.333 -3.33301 58 -10v-70c-21.333 5.33301 -40.333 8 -57 8c-38 0 -70.5 -13.333 -97.5 -40s-40.5 -57.667 -40.5 -93v-331h-74z" />
    <glyph glyph-name="s" unicode="s" horiz-adv-x="504" 
d="M263 -3c52.667 -1.33301 97.1689 11.665 133.502 38.998s54.833 65.333 55.5 114c-0.666992 56.667 -28 96.334 -82 119.001c-15.333 6 -32 11.5 -50 16.5s-39.167 10 -63.5 15s-42.166 8.83301 -53.499 11.5c-54.667 14 -77.334 47.667 -68.001 101
c9.33301 49.333 53.666 72 132.999 68c48 -2 98 -21 150 -57c2.66699 7.33301 7.16699 19 13.5 35l12.5 32c-58 32.667 -114.333 50.334 -169 53.001c-121.333 4.66699 -191.333 -35.666 -210 -120.999c-6 -28.667 -4.5 -56.334 4.5 -83.001s23.167 -46.667 42.5 -60
c14 -10 30.167 -17.833 48.5 -23.5s41.833 -11.334 70.5 -17.001s49 -10.167 61 -13.5c62.667 -15.333 91 -44.666 85 -87.999c-6 -49.333 -43 -74 -111 -74c-52.667 0 -113.667 19.333 -183 58c-8 -23.333 -14.667 -47 -20 -71h1
c77.333 -34.667 143.666 -52.667 198.999 -54z" />
    <glyph glyph-name="t" unicode="t" horiz-adv-x="407" 
d="M372 105c0 -6 0.166992 -18 0.5 -36s0.5 -30.333 0.5 -37c-32 -24.667 -73 -37 -123 -37c-47.333 0 -82.5 16.167 -105.5 48.5s-34.5 74.833 -34.5 127.5v302h-79v64h79v144l75 15v-159h185v-64h-185v-299c0 -38 5.33301 -66.167 16 -84.5s32 -27.5 64 -27.5
c18 0 38.333 5 61 15s38 19.333 46 28z" />
    <glyph glyph-name="u" unicode="u" horiz-adv-x="614" 
d="M99 535v-0.998047v-307c0 -76 17.5 -133 52.5 -171s84.167 -57 147.5 -57c58 0 109 23 153 69v-68h76v535h-76v-323c0 -42.667 -13.167 -77.334 -39.5 -104.001s-59.833 -40 -100.5 -40c-43.333 0 -77 12.667 -101 38s-36 60.666 -36 105.999v323h-76z" />
    <glyph glyph-name="v" unicode="v" horiz-adv-x="508" 
d="M303 0l-100.001 0.00292969l-169 537h81c0 -0.666992 15.833 -56 47.5 -166s56.834 -191 75.501 -243l15 -55c1.33301 4 3.5 12.667 6.5 26s5.5 22.666 7.5 27.999c18 55.333 42.333 135.166 73 239.499s47.667 161.166 51 170.499h81z" />
    <glyph glyph-name="w" unicode="w" horiz-adv-x="801" 
d="M676 537l81.0029 0.000976562l-147 -537h-104l-103 406l-3 23l-2 -23l-103 -406h-104l-147 537h81c4.66699 -16.667 19.667 -76.834 45 -180.501l56 -228.5l15 -57c2 4.66699 4.66699 14 8 28s5.66602 23.333 6.99902 28l38.5 151.5l42.5 166.5
c11.333 45.333 18.666 75.333 21.999 90h82l22.5 -89.5l43 -168l38.5 -150.5c1.33301 -4.66699 3.66602 -14 6.99902 -28s6 -23.333 8 -28l15 57l54.5 220z" />
    <glyph glyph-name="x" unicode="x" horiz-adv-x="525" 
d="M493 537l-36.5 -54.5l-69.5 -103.5l-76 -113l115 -170l66 -96h-90l-36 52.5l-52.5 76l-49.5 73.5l-76.5 -113.5l-60.5 -88.5h-91l34.5 49.5l70 101.5l77.5 115l-110 163.5l-72 107.5h92l54 -83.5l82 -126.5l78 118.5l60 91.5h91z" />
    <glyph glyph-name="y" unicode="y" horiz-adv-x="477" 
d="M472 537l-206.002 -635c-16.667 -48.667 -40.667 -80 -72 -94s-75.333 -17.667 -132 -11l7 72c44 -6.66699 75.333 -5.5 94 3.5s34.334 34.5 47.001 76.5l9 40l-195 548h80l152 -447c0 0.666992 10.333 36 31 106l63.5 212.5c21.667 71.667 34.834 114.5 39.501 128.5h82
z" />
    <glyph glyph-name="z" unicode="z" horiz-adv-x="523" 
d="M448 443c-9.33301 -12 -36.5 -44.5 -81.5 -97.5l-146 -172l-88.5 -104.5h327v-69h-381l-30 87c61.333 76 169 202.333 323 379h-294l-7 71h377h1v-94z" />
    <glyph glyph-name="braceleft" unicode="{" horiz-adv-x="341" 
d="M169 20c-17.333 -18.667 -26.0059 -34.6709 -26.0059 -48.0039s6.5 -23.833 19.5 -31.5s31.167 -11.5 54.5 -11.5c18.667 0 34.667 0.666992 48 2l11 -67c-14 -2 -33.667 -3 -59 -3c-39.333 0 -74.5 9.33301 -105.5 28s-46.5 46.334 -46.5 83.001
c0 21.333 5.16699 41.166 15.5 59.499s26.833 39.166 49.5 62.499s36.334 38 41.001 44c26.667 33.333 33.5 62 20.5 86s-38.167 37 -75.5 39c-28.667 0 -45.667 -0.333008 -51 -1v0v67c27.333 0 44 0.333008 50 1c29.333 2.66699 52.5 12.167 69.5 28.5
s19.167 38.5 6.5 66.5c-6.66699 14 -17.667 29.333 -33 46s-29.5 31.167 -42.5 43.5s-24.667 27.833 -35 46.5s-15.5 38 -15.5 58c0 37.333 15.333 65.333 46 84s66 28 106 28c25.333 0 45 -1 59 -3l-11 -67c-13.333 1.33301 -29.333 2 -48 2c-21.333 0 -39 -4 -53 -12
s-21 -18.667 -21 -32c0 -14 8 -29 24 -45l32 -35c16 -17.333 27.833 -31 35.5 -41s15.334 -23.667 23.001 -41s11.5 -35 11.5 -53c0 -26.667 -6.66699 -50.5 -20 -71.5s-32.666 -33.5 -57.999 -37.5c26.667 -5.33301 46.334 -17.666 59.001 -36.999s19 -42.666 19 -69.999
c0 -21.333 -6.16699 -43.666 -18.5 -66.999s-23.666 -40.666 -33.999 -51.999s-26.166 -27.666 -47.499 -48.999z" />
    <glyph glyph-name="bar" unicode="|" horiz-adv-x="274" 
d="M174 -220h-74v988h74v-988z" />
    <glyph glyph-name="braceright" unicode="}" horiz-adv-x="330" 
d="M163 571c17.333 18.667 26.0059 34.6709 26.0059 48.0039s-6.5 23.833 -19.5 31.5s-31.167 11.5 -54.5 11.5c-18.667 0 -34.667 -0.666992 -48 -2l-11 67c14 2 33.667 3 59 3c39.333 0 74.5 -9.33301 105.5 -28s46.5 -46.334 46.5 -83.001
c0 -21.333 -5.16699 -41.166 -15.5 -59.499s-26.833 -39.166 -49.5 -62.499s-36.334 -38 -41.001 -44c-26.667 -33.333 -33.5 -62 -20.5 -86s38.167 -37 75.5 -39c28.667 0 45.667 0.333008 51 1v0v-67c-27.333 0 -44 -0.333008 -50 -1
c-29.333 -2.66699 -52.5 -12.167 -69.5 -28.5s-19.167 -38.5 -6.5 -66.5c6.66699 -14 17.667 -29.333 33 -46s29.5 -31.167 42.5 -43.5s24.667 -27.833 35 -46.5s15.5 -38 15.5 -58c0 -37.333 -15.333 -65.333 -46 -84s-66 -28 -106 -28c-25.333 0 -45 1 -59 3l11 67
c13.333 -1.33301 29.333 -2 48 -2c21.333 0 39 4 53 12s21 18.667 21 32c0 14 -8 29 -24 45l-32 35c-16 17.333 -27.833 31 -35.5 41s-15.334 23.667 -23.001 41s-11.5 35 -11.5 53c0 26.667 6.66699 50.5 20 71.5s32.666 33.5 57.999 37.5
c-26.667 5.33301 -46.334 17.666 -59.001 36.999s-19 42.666 -19 69.999c0 21.333 6.16699 43.666 18.5 66.999s23.666 40.666 33.999 51.999s26.166 27.666 47.499 48.999z" />
    <glyph glyph-name="asciitilde" unicode="~" horiz-adv-x="519" 
d="M458 344l0.000976562 -83c-35.333 -33.333 -71.333 -50 -108 -50c-22.667 0 -53.334 9.33301 -92.001 28s-67.667 28 -87 28c-38 0 -75 -17.667 -111 -53v83c32 31.333 69 47 111 47c22.667 0 53.334 -9.33301 92.001 -28s67.667 -28 87 -28c20 0 37.667 4.33301 53 13
s33.666 23 54.999 43z" />
    <glyph glyph-name="uni00A0" unicode="&#xa0;" horiz-adv-x="206" 
 />
    <glyph glyph-name="exclamdown" unicode="&#xa1;" horiz-adv-x="297" 
d="M106 61l9 243h62l9 -243v-263h-80v263zM93 480c0 18 4.66699 32 14 42s22.333 15 39 15c16 0 28.833 -5 38.5 -15s14.5 -24 14.5 -42c0 -17.333 -4.83301 -30.833 -14.5 -40.5s-22.5 -14.5 -38.5 -14.5s-28.833 4.66699 -38.5 14s-14.5 23 -14.5 41z" />
    <glyph glyph-name="cent" unicode="&#xa2;" horiz-adv-x="554" 
d="M482 77c-4.66699 -4 -11.6689 -8.83203 -21.002 -14.499s-29.666 -13.334 -60.999 -23.001s-64 -14.5 -98 -14.5h-9l-6 -61h-47l6 67c-48 10.667 -86.5 34.167 -115.5 70.5s-43.5 78.5 -43.5 126.5v136c0 54 21.167 100.833 63.5 140.5s91.5 60.167 147.5 61.5l6 61h47
l-6 -63c48.667 -5.33301 91 -18.666 127 -39.999c-2 -7.33301 -5.5 -19 -10.5 -35s-8.5 -27.667 -10.5 -35c-43.333 24 -81 38 -113 42l-39 -403h5c58.667 0 111 18.333 157 55c0.666992 -2.66699 2.83398 -10.334 6.50098 -23.001s7.16699 -23.667 10.5 -33z
M164.998 228.001c0 -26.667 8.33301 -51.499 25 -74.499s37.667 -39.833 63 -50.5l39 395c-34.667 -3.33301 -64.5 -18.333 -89.5 -45s-37.5 -56.334 -37.5 -89.001v-136z" />
    <glyph glyph-name="sterling" unicode="&#xa3;" horiz-adv-x="573" 
d="M312 100c-6 -14.667 -10.6699 -24 -14.0029 -28l220 1v-73h-454l-3 68h2c4 0 15.333 0.5 34 1.5s33.167 2 43.5 3s22.5 3.16699 36.5 6.5s25.333 8 34 14c16.667 12.667 26.834 29.167 30.501 49.5s2 41.5 -5 63.5s-15 41.833 -24 59.5s-19.167 34.5 -30.5 50.5h-113v62
h80c-30.667 58 -46 114 -46 168c0 61.333 22.333 112 67 152s98.334 60 161.001 60c74 0 133 -26.667 177 -80l-53 -59c-13.333 20 -31.166 35.667 -53.499 47s-45.833 17 -70.5 17c-40.667 0 -75.667 -12.833 -105 -38.5s-44 -58.5 -44 -98.5c0 -21.333 6 -48.833 18 -82.5
s25.667 -62.167 41 -85.5h241l-14 -62h-191c20.667 -31.333 34.5 -66 41.5 -104s4.83301 -75.333 -6.5 -112z" />
    <glyph glyph-name="currency" unicode="&#xa4;" horiz-adv-x="574" 
d="M512 81l-48 -45.001l-51 55c-36.667 -26 -78.667 -39 -126 -39s-89.333 13 -126 39l-51 -55l-48 45l52 55c-28.667 41.333 -43 88.333 -43 141c0 54.667 14.333 102.667 43 144l-52 54l48 45l51 -55c36.667 26.667 78.667 40 126 40s89.333 -13.333 126 -40l51 55l48 -45
l-52 -54c28.667 -41.333 43 -89 43 -143c0 -53.333 -14.333 -100.666 -43 -141.999zM435 277.999c0 54 -13.333 94.833 -40 122.5s-63 41.5 -109 41.5s-82.167 -14 -108.5 -42s-39.5 -68.667 -39.5 -122s13.167 -94 39.5 -122s62.5 -42 108.5 -42s82.333 13.833 109 41.5
s40 68.5 40 122.5z" />
    <glyph glyph-name="yen" unicode="&#xa5;" horiz-adv-x="586" 
d="M406 435l-21.0039 -40.499l-23 -44.5h132v-48h-152c-7.33301 -25.333 -11.666 -50.333 -12.999 -75h165v-48h-165v-179h-78v179h-164v48h164c-1.33301 26.667 -5.66602 51.667 -12.999 75h-151v48h130l-43 89c-6.66699 12.667 -31.167 62.167 -73.5 148.5
s-69.166 140.166 -80.499 161.499h90c16 -30 41.333 -81.667 76 -155l57 -121c20.667 -42 36.334 -81.667 47.001 -119c6.66699 24 22.667 62.667 48 116c80 167.333 125 260.333 135 279h90c-38.667 -73.333 -91 -178 -157 -314z" />
    <glyph glyph-name="brokenbar" unicode="&#xa6;" horiz-adv-x="274" 
d="M174 0h-74v301h74v-301zM174 432h-74v301h74v-301z" />
    <glyph glyph-name="section" unicode="&#xa7;" horiz-adv-x="550" 
d="M411 207c39.333 -24 58.9971 -64 58.9971 -120c0 -47.333 -16.833 -85.5 -50.5 -114.5s-75.5 -42.833 -125.5 -41.5c-18 0.666992 -49.5 5 -94.5 13s-80.833 11.333 -107.5 10c1.33301 26.667 4.66602 50 9.99902 70c22.667 2.66699 55.834 -1 99.501 -11
s73.834 -15 90.501 -15c32.667 0 57.167 5.66699 73.5 17s26.166 30.333 29.499 57c3.33301 24.667 -2.33398 45.834 -17.001 63.501s-35.667 28.167 -63 31.5c-7.33301 1.33301 -20.666 3.16602 -39.999 5.49902s-33.666 4.33301 -42.999 6s-21.333 4 -36 7
s-27.5 6.83301 -38.5 11.5s-20.833 10 -29.5 16c-17.333 12 -31 30 -41 54s-14 47.667 -12 71c5.33301 50 26 87 62 111l-5 2.5c-2 1 -3.33301 1.83301 -4 2.5c-17.333 12.667 -31 31 -41 55s-14 47.333 -12 70c10 99.333 78.333 147.333 205 144
c26 -0.666992 57.333 -4.66699 94 -12s62.334 -11 77.001 -11c-4 -23.333 -8.66699 -45.666 -14 -66.999c-10.667 0 -35.167 4.16699 -73.5 12.5s-68.166 13.166 -89.499 14.499c-75.333 4 -117 -22.667 -125 -80c-4.66699 -50 19.333 -80.333 72 -91
c6 -1.33301 22 -3.5 48 -6.5s41.333 -4.83301 46 -5.5c36.667 -4.66699 65 -12 85 -22c46.667 -24 70 -66.333 70 -127c0 -52 -19.667 -92.333 -59 -121zM314.997 409c-54 6.66699 -88.999 7.33301 -104.999 2c-36 -11.333 -56.333 -35.333 -61 -72
c-4.66699 -50 19.333 -80.333 72 -91c18 -4 39.333 -7 64 -9h7c32 0 56.333 5.66699 73 17s26.667 30.333 30 57c3.33301 25.333 -2.33398 46.833 -17.001 64.5s-35.667 28.167 -63 31.5z" />
    <glyph glyph-name="dieresis" unicode="&#xa8;" 
d="M204 654c0 -33.333 -16 -50 -48 -50c-32.667 0 -49 16.667 -49 50c0 32.667 16.333 49 49 49c32 0 48 -16.333 48 -49zM393 654c0 -33.333 -16 -50 -48 -50c-32.667 0 -49 16.667 -49 50c0 32.667 16.333 49 49 49c32 0 48 -16.333 48 -49z" />
    <glyph glyph-name="copyright" unicode="&#xa9;" horiz-adv-x="753" 
d="M704 367c0 -107.333 -28.333 -194.667 -85 -262s-137.667 -101 -243 -101c-104.667 0 -185.667 34 -243 102s-86 155 -86 261c0 110 29 198.333 87 265s138.667 100 242 100c102.667 0 183 -33.333 241 -100s87 -155 87 -265zM656 366.999
c0 100 -24.667 178.834 -74 236.501s-118 86.5 -206 86.5c-92.667 0 -162.5 -28.5 -209.5 -85.5s-70.5 -136.167 -70.5 -237.5c0 -98 23.667 -176 71 -234s117 -87 209 -87s161.667 28.167 209 84.5s71 135.166 71 236.499zM505 223
c-3.33301 -3.33301 -8.16992 -7.33105 -14.5029 -11.998s-20.333 -11 -42 -19s-44.167 -12 -67.5 -12c-43.333 0 -79 13.667 -107 41s-42 60.666 -42 99.999v94c0 38 15 70.833 45 98.5s64.667 41.5 104 41.5c45.333 0 84.333 -9.66699 117 -29
c-1.33301 -6 -3.66602 -14.833 -6.99902 -26.5s-5.66602 -19.5 -6.99902 -23.5c-35.333 20.667 -69.333 31 -102 31c-25.333 0 -47.666 -9.33301 -66.999 -28s-29 -40 -29 -64v-94c0 -24.667 9.5 -46.334 28.5 -65.001s41.5 -28 67.5 -28c8 0 16 0.5 24 1.5
s15.333 2.83301 22 5.5l17.5 7c5 2 10.333 5 16 9l12 8.5c2.33301 1.66699 5.83301 4.5 10.5 8.5l7 5z" />
    <glyph glyph-name="ordfeminine" unicode="&#xaa;" horiz-adv-x="414" 
d="M295 367l54 0.000976562v232c-0.666992 45.333 -13.5 81.5 -38.5 108.5s-59.833 40.5 -104.5 40.5c-54.667 0 -100.667 -13 -138 -39c2 -4.66699 4.83301 -12.334 8.5 -23.001l9.5 -27c36 27.333 75.333 41 118 41c60.667 0 91 -33.667 91 -101v-35
c-27.333 27.333 -64.333 41 -111 41c-42.667 0 -76.334 -10.167 -101.001 -30.5s-37 -49.833 -37 -88.5c0 -37.333 12.333 -66.833 37 -88.5s56.667 -32.5 96 -32.5c40.667 0 79.334 13.667 116.001 41v-39zM99 486.001c0 46.667 31.667 70.001 95 70.001
c33.333 0 63.333 -10.333 90 -31c8 -6.66699 12 -13.334 12 -20.001v-32c0 -8 -4 -15 -12 -21c-28 -26.667 -58 -39.667 -90 -39c-63.333 0 -95 24.333 -95 73z" />
    <glyph glyph-name="guillemotleft" unicode="&#xab;" horiz-adv-x="543" 
d="M271 41h-80l-144 231l144 231h80l-126 -231zM497 41h-80l-145 231l145 231h80l-126 -231z" />
    <glyph glyph-name="logicalnot" unicode="&#xac;" horiz-adv-x="573" 
d="M514 112h-75v199h-381v70h456v-269z" />
    <glyph glyph-name="registered" unicode="&#xae;" horiz-adv-x="455" 
d="M404 553c0 -57.333 -15.499 -103.168 -46.499 -137.501s-74.167 -51.5 -129.5 -51.5s-98.833 17.333 -130.5 52s-47.5 80.334 -47.5 137.001c0 58 15.667 104.167 47 138.5s74.666 51.5 129.999 51.5c54 0 97 -17 129 -51s48 -80.333 48 -139zM371.001 552.998
c-0.666992 51.333 -13.333 91 -38 119s-59.667 42 -105 42c-48 0 -84.167 -14.167 -108.5 -42.5s-36.5 -67.833 -36.5 -118.5c0 -48.667 12 -87.667 36 -117s60.333 -44 109 -44c47.333 0 83 14.167 107 42.5s36 67.833 36 118.5zM293.002 484.998l2.99805 -30h-6h-2
c-0.666992 -0.666992 -3 -1 -7 -1c-14 0 -24.333 5.33301 -31 16c-3.33301 4 -9 15 -17 33c-4 8 -8 15 -12 21c-4 5.33301 -8 8 -12 8h-17v-77h-30v198h67c17.333 0 31.333 -6 42 -18s16 -26 16 -42c0 -12.667 -3.5 -24.167 -10.5 -34.5s-16.5 -17.5 -28.5 -21.5l1 -2
c3.33301 -4 8.66602 -14 15.999 -30c2.66699 -3.33301 4.33398 -7 5.00098 -11c0.666992 -0.666992 1.66699 -2 3 -4c0.666992 -2 1.33398 -3.33301 2.00098 -4c0.666992 -2 3.33398 -3 8.00098 -3h4zM192 623.998l0.000976562 -62.999h36c8.66699 0 15.667 3.33301 21 10
c5.33301 5.33301 8 12.666 8 21.999c0 8 -2.66699 15.333 -8 22c-4.66699 6 -11.334 9 -20.001 9h-37z" />
    <glyph glyph-name="macron" unicode="&#xaf;" 
d="M374 644h-247v78h247v-78z" />
    <glyph glyph-name="degree" unicode="&#xb0;" horiz-adv-x="391" 
d="M347 600c0 -46 -13.668 -81.333 -41.001 -106s-64.333 -37 -111 -37c-47.333 0 -84.333 12.333 -111 37s-40 59.667 -40 105c0 46 13.333 81.5 40 106.5s63.334 37.5 110.001 37.5c48 0 85.5 -12.333 112.5 -37s40.5 -60 40.5 -106zM276.999 600
c0 26.667 -7.16797 47.5 -21.501 62.5s-34.833 22.5 -61.5 22.5c-25.333 0 -45 -7.5 -59 -22.5s-21 -35.833 -21 -62.5c0 -26 6.83301 -46.833 20.5 -62.5s33.834 -23.5 60.501 -23.5c26 0 46.167 7.66699 60.5 23s21.5 36.333 21.5 63z" />
    <glyph glyph-name="plusminus" unicode="&#xb1;" horiz-adv-x="519" 
d="M457 73v-73h-396v73h396zM221 109v173h-160v74h160v175h77v-175h159v-74h-159v-173h-77z" />
    <glyph glyph-name="twosuperior" unicode="&#xb2;" horiz-adv-x="405" 
d="M93 826l-37.001 38.0029c42 49.333 78.333 77.333 109 84c31.333 7.33301 59.333 6.5 84 -2.5s44 -23.5 58 -43.5c16 -22.667 22.333 -49.834 19 -81.501s-16.666 -60.167 -39.999 -85.5c-14.667 -16.667 -39.667 -43.667 -75 -81s-60.333 -64.333 -75 -81h194l5 -50
h-258l-18 47l187 200c18.667 19.333 28.167 40.333 28.5 63s-6.16699 40 -19.5 52c-13.333 14 -31 20.667 -53 20s-41.667 -8.33398 -59 -23.001c-14 -12.667 -30.667 -31.334 -50 -56.001z" />
    <glyph glyph-name="threesuperior" unicode="&#xb3;" horiz-adv-x="405" 
d="M276 710c30.667 -25.333 46.002 -56.334 46.002 -93.001v-10c0 -37.333 -12.333 -68.5 -37 -93.5s-55.667 -37.167 -93 -36.5c-40 0 -86.667 24.333 -140 73l34 38c43.333 -43.333 78.666 -65 105.999 -65c24 0 43.167 7.83301 57.5 23.5s21.5 35.834 21.5 60.501v10
c0 22.667 -8 42 -24 58s-35 24 -57 24h-58v45h57c20.667 0 38.334 7.5 53.001 22.5s22 33.167 22 54.5v11c-1.33301 24 -8.16602 43 -20.499 57s-29.833 21 -52.5 21c-5.33301 0 -10.5 -0.5 -15.5 -1.5s-9.5 -2.16699 -13.5 -3.5s-8.66699 -3.5 -14 -6.5l-12.5 -7
c-3 -1.66699 -7.33301 -4.66699 -13 -9s-9.33398 -7.33301 -11.001 -9s-5.5 -5 -11.5 -10s-9.66699 -8.16699 -11 -9.5l-31 40c44.667 40.667 89 61 133 61c35.333 0 64.666 -11.5 87.999 -34.5s35 -52.5 35 -88.5v-11c0 -19.333 -5.33301 -38 -16 -56
s-24.334 -32.667 -41.001 -44c8 -4 14.333 -7.66699 19 -11z" />
    <glyph glyph-name="acute" unicode="&#xb4;" 
d="M243 733h108l-124 -151h-79v9z" />
    <glyph glyph-name="mu" unicode="&#xb5;" horiz-adv-x="618" 
d="M442 537l75.998 -0.00195312v-524l-66 -15c-4.66699 10.667 -14.167 19.334 -28.5 26.001s-29.5 10 -45.5 10c-16.667 0 -39 -6 -67 -18s-52.667 -18 -74 -18c-23.333 0 -44 3.66699 -62 11v-228h-76v757h76v-1v-348c0 -40.667 5.33301 -70 16 -88s32.334 -27 65.001 -27
c14 0 33.5 4.16699 58.5 12.5s43.833 12.5 56.5 12.5s24.834 -1.66699 36.501 -5s20.5 -6.66602 26.5 -9.99902l8 -5v458z" />
    <glyph glyph-name="paragraph" unicode="&#xb6;" horiz-adv-x="538" 
d="M460 -72l-69 -0.000976562v664c-20 5.33301 -42.333 8 -67 8v-672h-69v292h-35c-63.333 0 -110.5 16.333 -141.5 49s-46.5 88.667 -46.5 168c0 80.667 20.833 139.834 62.5 177.501s104.167 56.5 187.5 56.5c66 0 125.333 -6.33301 178 -19v-724z" />
    <glyph glyph-name="periodcentered" unicode="&#xb7;" horiz-adv-x="272" 
d="M196 268c0 -18 -5.33203 -32.166 -15.999 -42.499s-25.334 -15.5 -44.001 -15.5c-18 0 -32.5 5.16699 -43.5 15.5s-16.5 24.5 -16.5 42.5s5.5 32 16.5 42s25.5 15 43.5 15s32.5 -4.83301 43.5 -14.5s16.5 -23.834 16.5 -42.501z" />
    <glyph glyph-name="cedilla" unicode="&#xb8;" 
d="M345 -138c0 -54.667 -32.667 -82.001 -98 -82.001c-28.667 0 -59.334 3.33301 -92.001 10l11 55c30 -8 56 -12 78 -12c14 0 23.667 2.5 29 7.5s8 13.5 8 25.5s-5 20.833 -15 26.5s-32.667 12.834 -68 21.501l24 98h49l-16 -64c34.667 -10 58.334 -21.167 71.001 -33.5
s19 -29.833 19 -52.5z" />
    <glyph glyph-name="onesuperior" unicode="&#xb9;" horiz-adv-x="405" 
d="M204 942l41 -20v-403h-50v355l-69 -69l-27 40z" />
    <glyph glyph-name="ordmasculine" unicode="&#xba;" horiz-adv-x="439" 
d="M214 364c46.667 0 84.834 15.499 114.501 46.499s44.5 70.5 44.5 118.5v50c0 47.333 -15.167 87.333 -45.5 120s-68.833 49 -115.5 49c-49.333 0 -89.333 -16.167 -120 -48.5s-46 -72.166 -46 -119.499v-47c0 -50.667 15.167 -91.5 45.5 -122.5
s71.166 -46.5 122.499 -46.5zM211 700.999c34 0 60.667 -11.167 80 -33.5s29 -49.5 29 -81.5v-60c0 -34.667 -9.66699 -62.5 -29 -83.5s-46 -31.5 -80 -31.5s-61.167 10.667 -81.5 32s-30.5 49 -30.5 83v60c0 31.333 10.167 58.333 30.5 81s47.5 34 81.5 34z" />
    <glyph glyph-name="guillemotright" unicode="&#xbb;" horiz-adv-x="543" 
d="M497 272l-145 -231h-80l127 231l-127 231h80zM271 272l-145 -231h-79l126 231l-126 231h79z" />
    <glyph glyph-name="onequarter" unicode="&#xbc;" horiz-adv-x="970" 
d="M650 748l-268 -748h-58l268 748h58zM922 157l0.00195312 -46.998h-56v-110h-50v110h-175l-18 48c3.33301 6 13.5 25.833 30.5 59.5l53.5 106l50 96.5c4 6 8.66699 12.333 14 19s11.666 14 18.999 22s12.666 14 15.999 18h60c-34 -36.667 -55.667 -64.334 -65 -83.001
c-42 -78.667 -82.333 -158.334 -121 -239.001h136v140h50v-140h56zM217.002 731.002l41 -20v-403h-50v355l-69 -69l-27 40z" />
    <glyph glyph-name="onehalf" unicode="&#xbd;" horiz-adv-x="970" 
d="M650 748l-269 -748h-57l269 748h57zM217 731l41 -20v-403h-50v355l-69 -69l-27 40zM657 303l-37.001 38.0029c42 49.333 78.333 77.333 109 84c31.333 7.33301 59.333 6.5 84 -2.5s44 -23.5 58 -43.5c16 -22.667 22.333 -49.834 19 -81.501
s-16.666 -60.167 -39.999 -85.5l-75 -80.5l-75 -81.5h194l5 -50h-258l-18 47l187 200c18.667 19.333 28.167 40.333 28.5 63s-6.16699 40 -19.5 52c-13.333 14 -31 20.667 -53 20s-41.667 -8.33398 -59 -23.001c-14 -12.667 -30.667 -31.334 -50 -56.001z" />
    <glyph glyph-name="threequarters" unicode="&#xbe;" horiz-adv-x="970" 
d="M661 748l-268 -748h-58l268 748h58zM281 504c30.667 -25.333 46.002 -56.334 46.002 -93.001v-10c0 -37.333 -12.333 -68.5 -37 -93.5s-55.667 -37.167 -93 -36.5c-40 0 -86.667 24.333 -140 73l34 38c43.333 -43.333 78.666 -65 105.999 -65
c24 0 43.167 7.83301 57.5 23.5s21.5 35.834 21.5 60.501v10c0 22.667 -8 42 -24 58s-35 24 -57 24h-58v45h57c20.667 0 38.334 7.5 53.001 22.5s22 33.167 22 54.5v11c-1.33301 24 -8.16602 43 -20.499 57s-29.833 21 -52.5 21c-5.33301 0 -10.5 -0.5 -15.5 -1.5
s-9.5 -2.16699 -13.5 -3.5s-8.66699 -3.5 -14 -6.5l-12.5 -7c-3 -1.66699 -7.33301 -4.66699 -13 -9s-9.33398 -7.33301 -11.001 -9s-5.5 -5 -11.5 -10s-9.66699 -8.16699 -11 -9.5l-31 40c44.667 40.667 89 61 133 61c35.333 0 64.666 -11.5 87.999 -34.5
s35 -52.5 35 -88.5v-11c0 -19.333 -5.33301 -38 -16 -56s-24.334 -32.667 -41.001 -44c8 -4 14.333 -7.66699 19 -11zM915.002 156.999l0.00195312 -46.998h-56v-110h-50v110h-175l-18 48c3.33301 6 13.5 25.833 30.5 59.5l53.5 106l50 96.5c4 6 8.66699 12.333 14 19
s11.666 14 18.999 22s12.666 14 15.999 18h60c-34 -36.667 -55.667 -64.334 -65 -83.001c-42 -78.667 -82.333 -158.334 -121 -239.001h136v140h50v-140h56z" />
    <glyph glyph-name="questiondown" unicode="&#xbf;" horiz-adv-x="452" 
d="M50 -57c0 28.667 6.33496 53.4961 19.002 74.4961s28 38.667 46 53l54.5 44c18.333 15 34.166 34.5 47.499 58.5s20.333 52.333 21 85l2 54h70v-77c0 -30 -5.83301 -57.667 -17.5 -83s-25.834 -46.666 -42.501 -63.999s-33.334 -33.666 -50.001 -48.999
s-30.834 -31.166 -42.501 -47.499s-17.5 -33.166 -17.5 -50.499c0 -33.333 13.833 -55 41.5 -65s60.334 -7.16699 98.001 8.5s69.834 40.5 96.501 74.5l29 -92c-44 -42 -94.167 -67.5 -150.5 -76.5s-104.5 0.333008 -144.5 28s-60 69.167 -60 124.5zM208.002 488.996
c0 17.333 5.16797 30.833 15.501 40.5s25.166 14.5 44.499 14.5c18 0 32.167 -4.83301 42.5 -14.5s15.5 -23.167 15.5 -40.5c0 -18 -5.33301 -31.833 -16 -41.5s-25 -14.5 -43 -14.5c-17.333 0 -31.5 4.83301 -42.5 14.5s-16.5 23.5 -16.5 41.5z" />
    <glyph glyph-name="Agrave" unicode="&#xc0;" horiz-adv-x="631" 
d="M346 788h-79l-105 117h100l84 -108v-9zM267 749h80.999l151 -450.5l77.5 -228.5c13 -38 20.833 -61.333 23.5 -70h-83l-40.5 117c-16.333 48.667 -30.166 87.667 -41.499 117h-261l-80 -234h-82zM197.999 308h217l-104 319l-4 32l-4 -32z" />
    <glyph glyph-name="Aacute" unicode="&#xc1;" horiz-adv-x="631" 
d="M349 788h-79v9l84 108h101zM267 749h80.999l151 -450.5l77.5 -228.5c13 -38 20.833 -61.333 23.5 -70h-83l-40.5 117c-16.333 48.667 -30.166 87.667 -41.499 117h-261l-80 -234h-82zM197.999 308h217l-104 319l-4 32l-4 -32z" />
    <glyph glyph-name="Acircumflex" unicode="&#xc2;" horiz-adv-x="631" 
d="M453 788h-75l-66 87l-64 -87h-73v9l78 108h121l79 -108v-9zM267 749h80.999l151 -450.5l77.5 -228.5c13 -38 20.833 -61.333 23.5 -70h-83l-40.5 117c-16.333 48.667 -30.166 87.667 -41.499 117h-261l-80 -234h-82zM197.999 308h217l-104 319l-4 32l-4 -32z" />
    <glyph glyph-name="Atilde" unicode="&#xc3;" horiz-adv-x="631" 
d="M466 904c-5.33301 -39.333 -15.334 -66.5 -30.001 -81.5s-33.334 -22.5 -56.001 -22.5c-20 0 -38.333 4.66699 -55 14l-50 29c-11.333 6 -20.666 9 -27.999 9c-10 0 -17.833 -3.66699 -23.5 -11s-10.167 -20.333 -13.5 -39h-63c5.33301 39.333 15.333 66.5 30 81.5
s33.334 22.5 56.001 22.5c20 0 38.333 -4.66699 55 -14l50 -29c10 -6 19.333 -9 28 -9c9.33301 0 16.833 3.5 22.5 10.5s10.5 20.167 14.5 39.5h63zM266.999 749h80.999l151 -450.5l77.5 -228.5c13 -38 20.833 -61.333 23.5 -70h-83l-40.5 117
c-16.333 48.667 -30.166 87.667 -41.499 117h-261l-80 -234h-82zM197.998 308h217l-104 319l-4 32l-4 -32z" />
    <glyph glyph-name="Adieresis" unicode="&#xc4;" horiz-adv-x="631" 
d="M272 861c0 -14.667 -4.16797 -26 -12.501 -34s-20.166 -12 -35.499 -12c-31.333 0 -47 15.333 -47 46c0 29.333 16 44 48 44c14 0 25.333 -3.66699 34 -11s13 -18.333 13 -33zM456.999 861c0 -30.667 -15.666 -46 -46.999 -46c-14.667 0 -26.334 4 -35.001 12
s-13 19.333 -13 34c0 29.333 16 44 48 44c31.333 0 47 -14.667 47 -44zM275 749h81l151 -450.5l77.5 -228.5c13 -38 20.833 -61.333 23.5 -70h-83c-11.333 30 -24.333 66.833 -39 110.5l-32 94.5c-6.66699 19.333 -28 29 -64 29h-208l-80 -234h-82zM385 308
c13.333 0 27 -2.33301 41 -7l-107 318l-4 32l-4 -32l-105 -311h179z" />
    <glyph glyph-name="Aring" unicode="&#xc5;" horiz-adv-x="631" 
d="M427 861c0 -54 -37 -81 -111 -81c-73.333 0 -110 27 -110 81s37 81 111 81c73.333 0 110 -27 110 -81zM367 861c0 28.667 -16.667 43 -50 43c-34 0 -51 -14.333 -51 -43c0 -28 17 -42 51 -42c33.333 0 50 14 50 42zM275 749h81l151 -450.5l77.5 -228.5
c13 -38 20.833 -61.333 23.5 -70h-83c-11.333 30 -24.333 66.833 -39 110.5l-32 94.5c-6.66699 19.333 -28 29 -64 29h-208l-80 -234h-82zM385 308c13.333 0 27 -2.33301 41 -7l-107 318l-4 32l-4 -32l-105 -311h179z" />
    <glyph glyph-name="AE" unicode="&#xc6;" horiz-adv-x="905" 
d="M439 0l0.00195312 280.002c0 28.667 1.66699 49 5 61h-224l-115 -341h-82l255 749h570v-75h-332v-189c2.66699 -32 7 -51.667 13 -59s24 -12 54 -14h234v-75h-249c-2.66699 0 -6.33398 -0.166992 -11.001 -0.5s-7.83398 -0.5 -9.50098 -0.5s-4.16699 -0.333008 -7.5 -1
s-5.5 -1.33398 -6.5 -2.00098s-2.66699 -1.66699 -5 -3s-3.83301 -2.83301 -4.5 -4.5l-2.5 -6.5c-1 -2.66699 -1.83301 -5.66699 -2.5 -9c-2 -10.667 -3 -26.334 -3 -47.001v-187h328l10 -76h-415zM314.002 624.002l-70 -208.999h201c-4 11.333 -6 29.666 -6 54.999v206
l-107 1z" />
    <glyph glyph-name="Ccedilla" unicode="&#xc7;" horiz-adv-x="590" 
d="M455 18c-39.333 -16 -74.001 -25.333 -104.001 -28l-10 -40c34.667 -10 58.334 -21.167 71.001 -33.5s19 -29.833 19 -52.5c0 -54.667 -32.667 -82 -98 -82c-28.667 0 -59.334 3.33301 -92.001 10l11 55c30 -8 56 -12 78 -12c14 0 23.667 2.5 29 7.5s8 13.5 8 25.5
s-5 20.833 -15 26.5s-32.667 12.834 -68 21.501l18 75c-66 6 -120 34.333 -162 85c-46.667 54.667 -70 126 -70 214v171c0 84.667 23.333 155 70 211c46.667 57.333 107 87 181 89c84 1.33301 159.667 -24.334 227 -77.001l-50 -63c-52.667 42 -108.334 63.667 -167.001 65
h-7c-50 -1.33301 -91.333 -21.666 -124 -60.999c-34.667 -41.333 -52 -96 -52 -164v-171c0 -70.667 17 -126.334 51 -167.001c32.667 -36.667 74.334 -56 125.001 -58h14c24 2 53.333 10.667 88 26s64.334 31.333 89.001 48l41 -71c-30 -18 -63.667 -34.667 -101 -50z" />
    <glyph glyph-name="Egrave" unicode="&#xc8;" horiz-adv-x="595" 
d="M366 788h-79l-105 117h100l84 -108v-9zM109 749v-749h431l-10 76h-344v261h317v75h-317v262h348v75v0h-425z" />
    <glyph glyph-name="Eacute" unicode="&#xc9;" horiz-adv-x="595" 
d="M323 788h-79v9l84 108h101zM109 749v-749h431l-10 76h-344v261h317v75h-317v262h348v75v0h-425z" />
    <glyph glyph-name="Ecircumflex" unicode="&#xca;" horiz-adv-x="595" 
d="M455 788h-75l-66 87l-64 -87h-73v9l78 108h121l79 -108v-9zM109 749v-749h431l-10 76h-344v261h317v75h-317v262h348v75v0h-425z" />
    <glyph glyph-name="Edieresis" unicode="&#xcb;" horiz-adv-x="595" 
d="M280 861c0 -14.667 -4.16797 -26 -12.501 -34s-20.166 -12 -35.499 -12c-31.333 0 -47 15.333 -47 46c0 29.333 16 44 48 44c14 0 25.333 -3.66699 34 -11s13 -18.333 13 -33zM464.999 861c0 -30.667 -15.666 -46 -46.999 -46c-14.667 0 -26.334 4 -35.001 12
s-13 19.333 -13 34c0 29.333 16 44 48 44c31.333 0 47 -14.667 47 -44zM109 749v-749h431l-10 76h-344v261h317v75h-317v262h348v75v0h-425z" />
    <glyph glyph-name="Igrave" unicode="&#xcc;" horiz-adv-x="317" 
d="M199 788h-79l-105 117h100l84 -108v-9zM122 749v-749h78v0v1v0v1v0v1v1v0v1v1v0v1v1v1v0v1v1v1v1v1v1v1v1v1v1v1v1v1v1v1v1v1v1v1v1v1v1v1v1v1v1v1v1v1v1v1v1v1v1v1v1v1v1v1v1v1v1v1v1v1v1v1v1v1v1v1v1v1v1v1v1v1v1v1v1v1v1v1v1v1v1v1v1v1v1v1v1v1v1v1v1v1v1v1v1v1v1v1v1
v1v1v1v1v1v1v1v1v1v1v1v1v1v1v1v1v1v1v1v1v1v1v1v1v1v1v1v1v1v1v1v1v1v1v1v1v1v1v1v1v1v1v2v1v1v1v1v1v1v1v1v1v1v2v1v1v1v1v1v1v1v2v1v1v1v1v1v1v2v1v1v1v1v1v1v2v1v1v1v1v2v1v1v1v1v1v2v1v1v1v1v2v1v1v1v2v1v1v1v1v2v1v1v1v2v1v1v1v2v1v1v1v2v1v1v1v2v1v1v2v1v1v1v2v1v1v2
v1v1v1v2v1v1v2v1v1v2v1v1v2v1v1v2v1v1v2v1v1v2v1v1v2v1v1v2v1v1v2v1v2v1v1v2v1v1v2v1v2v1v1v2v1v2v1v1v2v1v2v1v1v2v1v2v1v2v1v1v2v1v2v1v2v1v1v2v1v2v1v2v1v2v1v2v1v1v2v1v2v1v2v1v2v1v2v1v2v1v2v1v2v1v2v1v2v1v2v1v2v1v2v1v2v1v2v1v2v1v2v1v2v2v1v2v1v2v1v2v1v2v1v2v2v1v2
v1v2v1v2v1v2v2v1v2v1v2v2v1v2v1v2v1v2v2v1v2v1v2v2v1v2v2v1v2v1v2v2v1v2v1v2v2v1v2v2v1v2v2v1v2v2v1v2v1v2v2v1v2v2v1v2v2v1v2v2v1v2v2v1v2v2v2v1v2v2v1v2v2v1v2v2v2v1v2v2v1v2v2v1v2v2v2v1v2v2v2v1v2v2v2v1v2v2v1v2v2v2v1v2v2v2v2v1v2v2v2v1v2v2v2v1v2v2v2v2v1v2v2v2v2v1v2
v2v2v2v1v2v2v2v2v1v2v2v2v2v2v1v2v2v2v2v2v1v2v2v2v2v2v1v2v2v2v2v2v2v2v1v2v2v2v2v2v2v2v1v2v2v2v2v2v2v2v2v2v1v2v2v2v2v2v9h-78z" />
    <glyph glyph-name="Iacute" unicode="&#xcd;" horiz-adv-x="299" 
d="M187 788h-79v9l84 108h101zM108 749v-749h78v0v1v0v1v0v1v1v0v1v1v0v1v1v1v0v1v1v1v1v1v1v1v1v1v1v1v1v1v1v1v1v1v1v1v1v1v1v1v1v1v1v1v1v1v1v1v1v1v1v1v1v1v1v1v1v1v1v1v1v1v1v1v1v1v1v1v1v1v1v1v1v1v1v1v1v1v1v1v1v1v1v1v1v1v1v1v1v1v1v1v1v1v1v1v1v1v1v1v1v1v1v1v1v1
v1v1v1v1v1v1v1v1v1v1v1v1v1v1v1v1v1v1v1v1v1v1v1v1v1v1v1v1v1v1v1v1v1v1v1v1v1v2v1v1v1v1v1v1v1v1v1v1v2v1v1v1v1v1v1v1v2v1v1v1v1v1v1v2v1v1v1v1v1v1v2v1v1v1v1v2v1v1v1v1v1v2v1v1v1v1v2v1v1v1v2v1v1v1v1v2v1v1v1v2v1v1v1v2v1v1v1v2v1v1v1v2v1v1v2v1v1v1v2v1v1v2v1v1v1v2v1
v1v2v1v1v2v1v1v2v1v1v2v1v1v2v1v1v2v1v1v2v1v1v2v1v1v2v1v2v1v1v2v1v1v2v1v2v1v1v2v1v2v1v1v2v1v2v1v1v2v1v2v1v2v1v1v2v1v2v1v2v1v1v2v1v2v1v2v1v2v1v2v1v1v2v1v2v1v2v1v2v1v2v1v2v1v2v1v2v1v2v1v2v1v2v1v2v1v2v1v2v1v2v1v2v1v2v1v2v2v1v2v1v2v1v2v1v2v1v2v2v1v2v1v2v1v2v1
v2v2v1v2v1v2v2v1v2v1v2v1v2v2v1v2v1v2v2v1v2v2v1v2v1v2v2v1v2v1v2v2v1v2v2v1v2v2v1v2v2v1v2v1v2v2v1v2v2v1v2v2v1v2v2v1v2v2v1v2v2v2v1v2v2v1v2v2v1v2v2v2v1v2v2v1v2v2v1v2v2v2v1v2v2v2v1v2v2v2v1v2v2v1v2v2v2v1v2v2v2v2v1v2v2v2v1v2v2v2v1v2v2v2v2v1v2v2v2v2v1v2v2v2v2v1v2
v2v2v2v1v2v2v2v2v2v1v2v2v2v2v2v1v2v2v2v2v2v1v2v2v2v2v2v2v2v1v2v2v2v2v2v2v2v1v2v2v2v2v2v2v2v2v2v1v2v2v2v2v2v9h-78z" />
    <glyph glyph-name="Icircumflex" unicode="&#xce;" horiz-adv-x="296" 
d="M286 788h-73l-64 88l-62 -88h-70v9l75 109h117l77 -109v-9zM108 749v-749h78v0v1v0v1v0v1v1v0v1v1v0v1v1v1v0v1v1v1v1v1v1v1v1v1v1v1v1v1v1v1v1v1v1v1v1v1v1v1v1v1v1v1v1v1v1v1v1v1v1v1v1v1v1v1v1v1v1v1v1v1v1v1v1v1v1v1v1v1v1v1v1v1v1v1v1v1v1v1v1v1v1v1v1v1v1v1v1v1v1
v1v1v1v1v1v1v1v1v1v1v1v1v1v1v1v1v1v1v1v1v1v1v1v1v1v1v1v1v1v1v1v1v1v1v1v1v1v1v1v1v1v1v1v1v1v1v1v1v1v1v1v1v2v1v1v1v1v1v1v1v1v1v1v2v1v1v1v1v1v1v1v2v1v1v1v1v1v1v2v1v1v1v1v1v1v2v1v1v1v1v2v1v1v1v1v1v2v1v1v1v1v2v1v1v1v2v1v1v1v1v2v1v1v1v2v1v1v1v2v1v1v1v2v1v1v1v2
v1v1v2v1v1v1v2v1v1v2v1v1v1v2v1v1v2v1v1v2v1v1v2v1v1v2v1v1v2v1v1v2v1v1v2v1v1v2v1v1v2v1v2v1v1v2v1v1v2v1v2v1v1v2v1v2v1v1v2v1v2v1v1v2v1v2v1v2v1v1v2v1v2v1v2v1v1v2v1v2v1v2v1v2v1v2v1v1v2v1v2v1v2v1v2v1v2v1v2v1v2v1v2v1v2v1v2v1v2v1v2v1v2v1v2v1v2v1v2v1v2v1v2v2v1v2v1
v2v1v2v1v2v1v2v2v1v2v1v2v1v2v1v2v2v1v2v1v2v2v1v2v1v2v1v2v2v1v2v1v2v2v1v2v2v1v2v1v2v2v1v2v1v2v2v1v2v2v1v2v2v1v2v2v1v2v1v2v2v1v2v2v1v2v2v1v2v2v1v2v2v1v2v2v2v1v2v2v1v2v2v1v2v2v2v1v2v2v1v2v2v1v2v2v2v1v2v2v2v1v2v2v2v1v2v2v1v2v2v2v1v2v2v2v2v1v2v2v2v1v2v2v2v1v2
v2v2v2v1v2v2v2v2v1v2v2v2v2v1v2v2v2v2v1v2v2v2v2v2v1v2v2v2v2v2v1v2v2v2v2v2v1v2v2v2v2v2v2v2v1v2v2v2v2v2v2v2v1v2v2v2v2v2v2v2v2v2v1v2v2v2v2v2v9h-78z" />
    <glyph glyph-name="Idieresis" unicode="&#xcf;" horiz-adv-x="294" 
d="M104 860c0 -14.667 -4.16699 -26 -12.5 -34s-19.833 -12 -34.5 -12c-30 0 -45 15.333 -45 46c0 29.333 15.333 44 46 44c13.333 0 24.333 -3.83301 33 -11.5s13 -18.5 13 -32.5zM283 860c0 -30.667 -15 -46 -45 -46c-14 0 -25.333 4 -34 12s-13 19.333 -13 34
c0 29.333 15.667 44 47 44c30 0 45 -14.667 45 -44zM108 749v-749h78v0v1v0v1v0v1v1v0v1v1v0v1v1v1v0v1v1v1v1v1v1v1v1v1v1v1v1v1v1v1v1v1v1v1v1v1v1v1v1v1v1v1v1v1v1v1v1v1v1v1v1v1v1v1v1v1v1v1v1v1v1v1v1v1v1v1v1v1v1v1v1v1v1v1v1v1v1v1v1v1v1v1v1v1v1v1v1v1v1v1v1v1v1v1
v1v1v1v1v1v1v1v1v1v1v1v1v1v1v1v1v1v1v1v1v1v1v1v1v1v1v1v1v1v1v1v1v1v1v1v1v1v1v1v1v1v1v1v1v1v1v1v2v1v1v1v1v1v1v1v1v1v1v2v1v1v1v1v1v1v1v2v1v1v1v1v1v1v2v1v1v1v1v1v1v2v1v1v1v1v2v1v1v1v1v1v2v1v1v1v1v2v1v1v1v2v1v1v1v1v2v1v1v1v2v1v1v1v2v1v1v1v2v1v1v1v2v1v1v2v1v1
v1v2v1v1v2v1v1v1v2v1v1v2v1v1v2v1v1v2v1v1v2v1v1v2v1v1v2v1v1v2v1v1v2v1v1v2v1v2v1v1v2v1v1v2v1v2v1v1v2v1v2v1v1v2v1v2v1v1v2v1v2v1v2v1v1v2v1v2v1v2v1v1v2v1v2v1v2v1v2v1v2v1v1v2v1v2v1v2v1v2v1v2v1v2v1v2v1v2v1v2v1v2v1v2v1v2v1v2v1v2v1v2v1v2v1v2v1v2v2v1v2v1v2v1v2v1v2
v1v2v2v1v2v1v2v1v2v1v2v2v1v2v1v2v2v1v2v1v2v1v2v2v1v2v1v2v2v1v2v2v1v2v1v2v2v1v2v1v2v2v1v2v2v1v2v2v1v2v2v1v2v1v2v2v1v2v2v1v2v2v1v2v2v1v2v2v1v2v2v2v1v2v2v1v2v2v1v2v2v2v1v2v2v1v2v2v1v2v2v2v1v2v2v2v1v2v2v2v1v2v2v1v2v2v2v1v2v2v2v2v1v2v2v2v1v2v2v2v1v2v2v2v2v1v2
v2v2v2v1v2v2v2v2v1v2v2v2v2v1v2v2v2v2v2v1v2v2v2v2v2v1v2v2v2v2v2v1v2v2v2v2v2v2v2v1v2v2v2v2v2v2v2v1v2v2v2v2v2v2v2v2v2v1v2v2v2v2v2v9h-78z" />
    <glyph glyph-name="Eth" unicode="&#xd0;" horiz-adv-x="705" 
d="M541 671c50 -57.333 75 -132.333 75 -225v-147c0 -92 -25 -166.333 -75 -223c-44.667 -48.667 -105 -74 -181 -76h-251v340h-84v70h84v340h251c76 -2 136.333 -28.333 181 -79zM535 299v147c-3.33301 72.667 -18.333 129 -45 169s-70.667 60.333 -132 61h-172v-266h161
v-70h-161v-267h172c61.333 0.666992 105.333 20.5 132 59.5s41.667 94.5 45 166.5z" />
    <glyph glyph-name="Ntilde" unicode="&#xd1;" horiz-adv-x="715" 
d="M533 904c-5.33301 -39.333 -15.334 -66.5 -30.001 -81.5s-33.334 -22.5 -56.001 -22.5c-20 0 -38.333 4.66699 -55 14l-50 29c-11.333 6 -20.666 9 -27.999 9c-10 0 -17.833 -3.66699 -23.5 -11s-10.167 -20.333 -13.5 -39h-63c5.33301 39.333 15.333 66.5 30 81.5
s33.334 22.5 56.001 22.5c20 0 38.333 -4.66699 55 -14l50 -29c10 -6 19.333 -9 28 -9c9.33301 0 16.833 3.5 22.5 10.5s10.5 20.167 14.5 39.5h63zM529.999 749h78v-749h-79l-344 605v-605h-78v749h81l342 -600v600z" />
    <glyph glyph-name="Ograve" unicode="&#xd2;" horiz-adv-x="695" 
d="M387 788h-79l-105 117h100l84 -108v-9zM69 447l1 -149c0 -94 26 -168.833 78 -224.5s118.333 -83.5 199 -83.5c80 0 146.333 28.167 199 84.5s79 131.5 79 225.5v147c0 95.333 -26.5 170.833 -79.5 226.5s-119.833 83.5 -200.5 83.5s-146.667 -27.667 -198 -83
s-77.333 -131 -78 -227zM150 305l-0.000976562 136.001c0 72.667 16.833 131.667 50.5 177s82.167 68 145.5 68c64.667 0 113.834 -22.667 147.501 -68s50.167 -104.333 49.5 -177v-135c0.666992 -73.333 -15.5 -132.333 -48.5 -177s-81.5 -67 -145.5 -67
c-64.667 0 -114 22.167 -148 66.5s-51 103.166 -51 176.499z" />
    <glyph glyph-name="Oacute" unicode="&#xd3;" horiz-adv-x="695" 
d="M396 788h-79v9l84 108h101zM69 447l1 -149c0 -94 26 -168.833 78 -224.5s118.333 -83.5 199 -83.5c80 0 146.333 28.167 199 84.5s79 131.5 79 225.5v147c0 95.333 -26.5 170.833 -79.5 226.5s-119.833 83.5 -200.5 83.5s-146.667 -27.667 -198 -83
s-77.333 -131 -78 -227zM150 305l-0.000976562 136.001c0 72.667 16.833 131.667 50.5 177s82.167 68 145.5 68c64.667 0 113.834 -22.667 147.501 -68s50.167 -104.333 49.5 -177v-135c0.666992 -73.333 -15.5 -132.333 -48.5 -177s-81.5 -67 -145.5 -67
c-64.667 0 -114 22.167 -148 66.5s-51 103.166 -51 176.499z" />
    <glyph glyph-name="Ocircumflex" unicode="&#xd4;" horiz-adv-x="693" 
d="M496 788h-75l-66 87l-64 -87h-73v9l78 108h121l79 -108v-9zM69 447l1 -149c0 -94 26 -168.833 78 -224.5s118.333 -83.5 199 -83.5c80 0 146.333 28.167 199 84.5s79 131.5 79 225.5v147c0 95.333 -26.5 170.833 -79.5 226.5s-119.833 83.5 -200.5 83.5
s-146.667 -27.667 -198 -83s-77.333 -131 -78 -227zM150 305l-0.000976562 136.001c0 72.667 16.833 131.667 50.5 177s82.167 68 145.5 68c64.667 0 113.834 -22.667 147.501 -68s50.167 -104.333 49.5 -177v-135c0.666992 -73.333 -15.5 -132.333 -48.5 -177
s-81.5 -67 -145.5 -67c-64.667 0 -114 22.167 -148 66.5s-51 103.166 -51 176.499z" />
    <glyph glyph-name="Otilde" unicode="&#xd5;" horiz-adv-x="695" 
d="M508 905c-5.33301 -39.333 -15.333 -66.5 -30 -81.5s-33.334 -22.5 -56.001 -22.5c-20 0 -38.333 4.66699 -55 14l-50 29c-10.667 6 -20 9 -28 9c-10 0 -17.833 -3.66699 -23.5 -11s-10.167 -20.333 -13.5 -39h-63c5.33301 39.333 15.333 66.5 30 81.5
s33.334 22.5 56.001 22.5c20 0 38.333 -4.66699 55 -14l50 -29c10 -6 19.333 -9 28 -9c9.33301 0 16.833 3.5 22.5 10.5s10.5 20.167 14.5 39.5h63zM69 447l1 -149c0 -94 26 -168.833 78 -224.5s118.333 -83.5 199 -83.5c80 0 146.333 28.167 199 84.5s79 131.5 79 225.5
v147c0 95.333 -26.5 170.833 -79.5 226.5s-119.833 83.5 -200.5 83.5s-146.667 -27.667 -198 -83s-77.333 -131 -78 -227zM150 305l-0.000976562 136.001c0 72.667 16.833 131.667 50.5 177s82.167 68 145.5 68c64.667 0 113.834 -22.667 147.501 -68
s50.167 -104.333 49.5 -177v-135c0.666992 -73.333 -15.5 -132.333 -48.5 -177s-81.5 -67 -145.5 -67c-64.667 0 -114 22.167 -148 66.5s-51 103.166 -51 176.499z" />
    <glyph glyph-name="Odieresis" unicode="&#xd6;" horiz-adv-x="718" 
d="M312 861c0 -14.667 -4.16797 -26 -12.501 -34s-20.166 -12 -35.499 -12c-31.333 0 -47 15.333 -47 46c0 29.333 16 44 48 44c14 0 25.333 -3.66699 34 -11s13 -18.333 13 -33zM496.999 861c0 -30.667 -15.666 -46 -46.999 -46c-14.667 0 -26.334 4 -35.001 12
s-13 19.333 -13 34c0 29.333 16 44 48 44c31.333 0 47 -14.667 47 -44zM334 -10l26 -0.000976562c79.333 -0.666992 143.333 29 192 89s73 133.667 73 221v147c0 90 -24.167 164.333 -72.5 223s-112.5 87.667 -192.5 87c-1.33301 0.666992 -5.5 0.833984 -12.5 0.500977
s-11.5 -0.5 -13.5 -0.5c-80 0 -144.333 -29.5 -193 -88.5s-72.667 -132.833 -72 -221.5v-147c0 -88.667 24.167 -162.5 72.5 -221.5s112.5 -88.5 192.5 -88.5zM201 114.999c-34 38.667 -51 99 -51 181v155c4.66699 156 66.667 234 186 234h22
c62 0.666992 107.833 -19.5 137.5 -60.5s45.5 -98.833 47.5 -173.5v-155c0.666992 -73.333 -14.5 -130.833 -45.5 -172.5s-77.5 -62.167 -139.5 -61.5h-22c-60 2 -105 19.667 -135 53z" />
    <glyph glyph-name="multiply" unicode="&#xd7;" horiz-adv-x="519" 
d="M461 120l-54 -54l-148 148l-147 -148l-54 54l147 148l-146 146l53 55l147 -147l147 147l54 -55l-147 -146z" />
    <glyph glyph-name="Oslash" unicode="&#xd8;" horiz-adv-x="700" 
d="M551 671c48.667 -56.667 73 -131.001 73 -223.001v-147c0 -87.333 -24.333 -161 -73 -221s-112.667 -89.667 -192 -89h-26c-62.667 0 -117 19.667 -163 59l-56 -95h-47l74 124c-48.667 58 -73 132 -73 222v147c-0.666992 88.667 23.333 162.5 72 221.5s113 88.5 193 88.5
h26c63.333 0.666992 118 -18.666 164 -57.999l55 90h46zM149 296.999c0 -61.333 10.667 -112.333 32 -153l304 494c-32 32.667 -74.667 48.667 -128 48h-22c-119.333 0 -181.333 -78 -186 -234v-155zM357 62.999c62 -0.666992 108.5 19.833 139.5 61.5
s46.167 99.167 45.5 172.5v155c-1.33301 62 -12.333 112.333 -33 151l-302 -493c30 -29.333 72.667 -45 128 -47h22z" />
    <glyph glyph-name="Ugrave" unicode="&#xd9;" horiz-adv-x="726" 
d="M420 788h-79l-105 117h100l84 -108v-9zM103 265c0 -83.333 25.499 -150.167 76.499 -200.5s114.833 -75.5 191.5 -75.5c72 0 133.333 25.333 184 76s76 116.667 76 198v486h-78v-483c0 -60.667 -16.667 -110.167 -50 -148.5s-77.666 -57.5 -132.999 -57.5
c-58 0 -104 19.167 -138 57.5s-51 87.833 -51 148.5v483h-78v0v-484z" />
    <glyph glyph-name="Uacute" unicode="&#xda;" horiz-adv-x="726" 
d="M394 788h-79v9l84 108h101zM103 265c0 -83.333 25.499 -150.167 76.499 -200.5s114.833 -75.5 191.5 -75.5c72 0 133.333 25.333 184 76s76 116.667 76 198v486h-78v-483c0 -60.667 -16.667 -110.167 -50 -148.5s-77.666 -57.5 -132.999 -57.5
c-58 0 -104 19.167 -138 57.5s-51 87.833 -51 148.5v483h-78v0v-484z" />
    <glyph glyph-name="Ucircumflex" unicode="&#xdb;" horiz-adv-x="726" 
d="M504 788h-75l-66 87l-64 -87h-73v9l78 108h121l79 -108v-9zM103 265c0 -83.333 25.499 -150.167 76.499 -200.5s114.833 -75.5 191.5 -75.5c72 0 133.333 25.333 184 76s76 116.667 76 198v486h-78v-483c0 -60.667 -16.667 -110.167 -50 -148.5
s-77.666 -57.5 -132.999 -57.5c-58 0 -104 19.167 -138 57.5s-51 87.833 -51 148.5v483h-78v0v-484z" />
    <glyph glyph-name="Udieresis" unicode="&#xdc;" horiz-adv-x="726" 
d="M323 861c0 -14.667 -4.16797 -26 -12.501 -34s-20.166 -12 -35.499 -12c-31.333 0 -47 15.333 -47 46c0 29.333 16 44 48 44c14 0 25.333 -3.66699 34 -11s13 -18.333 13 -33zM507.999 861c0 -30.667 -15.666 -46 -46.999 -46c-14.667 0 -26.334 4 -35.001 12
s-13 19.333 -13 34c0 29.333 16 44 48 44c31.333 0 47 -14.667 47 -44zM355 -12h23.998c74.667 0.666992 135.334 25.167 182.001 73.5s70 108.833 70 181.5v506h-78v-493c4 -57.333 -11 -104 -45 -140s-77.667 -53.667 -131 -53h-20c-56 0 -99.5 17.167 -130.5 51.5
s-46.167 81.5 -45.5 141.5v493h-78v0v-504c0 -80 23.333 -142.833 70 -188.5s107.334 -68.5 182.001 -68.5z" />
    <glyph glyph-name="Yacute" unicode="&#xdd;" horiz-adv-x="571" 
d="M301 788h-79v9l84 108h101zM466 749l89.998 0.00195312c-38.667 -73.333 -91 -178 -157 -314l-25 -48.5c-12.667 -24.333 -22 -43.5 -28 -57.5c-16 -36 -24 -72.333 -24 -109v-220h-78v221c0 36 -6.66699 69.333 -20 100l-15 31l-20 42.5
c-6.66699 14.333 -14 29.166 -22 44.499c-6.66699 12.667 -31.167 62.167 -73.5 148.5s-69.166 140.166 -80.499 161.499h90c16 -30 41.333 -81.667 76 -155l57 -121c20.667 -42 36.334 -81.667 47.001 -119c6.66699 24 22.667 62.667 48 116
c80 167.333 125 260.333 135 279z" />
    <glyph glyph-name="Thorn" unicode="&#xde;" horiz-adv-x="621" 
d="M331 587c59.333 0 109.833 -20.833 151.5 -62.5s62.5 -92.167 62.5 -151.5s-20.833 -109.833 -62.5 -151.5s-92.167 -62.5 -151.5 -62.5h-146v-159h-77v732h77v-145h146zM428 276c26.667 28 40 60.333 40 97s-13.333 69 -40 97c-26.667 26.667 -59 40 -97 40h-146v-274
h146c38 0 70.333 13.333 97 40z" />
    <glyph glyph-name="germandbls" unicode="&#xdf;" horiz-adv-x="573" 
d="M529 136c0 -45.333 -13.501 -81.002 -40.501 -107.002s-64.167 -39 -111.5 -39c-34 0 -78 8.33301 -132 25l17 78c50.667 -18 87.334 -27 110.001 -27c21.333 0 38.333 5.83301 51 17.5s19 28.834 19 51.501c0 16 -6.5 31.333 -19.5 46s-28.833 28 -47.5 40l-56 37.5
c-18.667 13 -34.5 29.333 -47.5 49s-19.5 41.167 -19.5 64.5c0 24 7.5 48 22.5 72s31.333 44.333 49 61s34 35.834 49 57.501s22.5 41.834 22.5 60.501c0 27.333 -7.33301 47 -22 59s-41.667 18 -81 18c-42 0 -71 -7.33301 -87 -22s-24 -42 -24 -82v-596h-89v592
c0 62 15 108.5 45 139.5s82.667 46.5 158 46.5c126.667 0 190 -49 190 -147c0 -24.667 -7.5 -49.5 -22.5 -74.5s-31.667 -45.833 -50 -62.5s-35 -35.334 -50 -56.001s-22.5 -39.667 -22.5 -57c0 -15.333 6.5 -30 19.5 -44s28.667 -27.167 47 -39.5s36.833 -25.5 55.5 -39.5
s34.5 -31.5 47.5 -52.5s19.5 -44.167 19.5 -69.5z" />
    <glyph glyph-name="agrave" unicode="&#xe0;" horiz-adv-x="546" 
d="M347 582h-79l-124 151h108l95 -142v-9zM411 0l76.0049 -0.000976562v332c-0.666992 60 -18.834 109.167 -54.501 147.5s-84.5 57.5 -146.5 57.5c-52.667 0 -117.334 -14 -194.001 -42c2 -8.66699 5.33301 -21.667 10 -39s8 -30.333 10 -39
c62.667 35.333 121.667 53 177 53c40.667 0 71.167 -13.333 91.5 -40s30.5 -61 30.5 -103v-49c-14.667 14.667 -35.834 27.834 -63.501 39.501s-58.5 17.5 -92.5 17.5c-60.667 0 -108.334 -14.5 -143.001 -43.5s-52 -70.5 -52 -124.5c0 -52 17.5 -93.333 52.5 -124
s80.167 -46 135.5 -46c57.333 0 111.666 19.333 162.999 58v-55zM135.005 167.999c0 66 44.334 98.998 133.001 98.998c48 0 90.667 -15 128 -45c10.667 -9.33301 16 -18.666 16 -27.999v-45c0 -9.33301 -5.33301 -19.333 -16 -30
c-40.667 -37.333 -83.334 -55.666 -128.001 -54.999c-88.667 1.33301 -133 36 -133 104z" />
    <glyph glyph-name="aacute" unicode="&#xe1;" horiz-adv-x="546" 
d="M323 733h108l-124 -151h-79v9zM411 0l76.0049 -0.000976562v332c-0.666992 60 -18.834 109.167 -54.501 147.5s-84.5 57.5 -146.5 57.5c-52.667 0 -117.334 -14 -194.001 -42c2 -8.66699 5.33301 -21.667 10 -39s8 -30.333 10 -39c62.667 35.333 121.667 53 177 53
c40.667 0 71.167 -13.333 91.5 -40s30.5 -61 30.5 -103v-49c-14.667 14.667 -35.834 27.834 -63.501 39.501s-58.5 17.5 -92.5 17.5c-60.667 0 -108.334 -14.5 -143.001 -43.5s-52 -70.5 -52 -124.5c0 -52 17.5 -93.333 52.5 -124s80.167 -46 135.5 -46
c57.333 0 111.666 19.333 162.999 58v-55zM135.005 167.999c0 66 44.334 98.998 133.001 98.998c48 0 90.667 -15 128 -45c10.667 -9.33301 16 -18.666 16 -27.999v-45c0 -9.33301 -5.33301 -19.333 -16 -30c-40.667 -37.333 -83.334 -55.666 -128.001 -54.999
c-88.667 1.33301 -133 36 -133 104z" />
    <glyph glyph-name="acircumflex" unicode="&#xe2;" horiz-adv-x="546" 
d="M433 582h-79l-76 117l-75 -117h-77v9l90 142h127l90 -142v-9zM411 0l76.0049 -0.000976562v332c-0.666992 60 -18.834 109.167 -54.501 147.5s-84.5 57.5 -146.5 57.5c-52.667 0 -117.334 -14 -194.001 -42c2 -8.66699 5.33301 -21.667 10 -39s8 -30.333 10 -39
c62.667 35.333 121.667 53 177 53c40.667 0 71.167 -13.333 91.5 -40s30.5 -61 30.5 -103v-49c-14.667 14.667 -35.834 27.834 -63.501 39.501s-58.5 17.5 -92.5 17.5c-60.667 0 -108.334 -14.5 -143.001 -43.5s-52 -70.5 -52 -124.5c0 -52 17.5 -93.333 52.5 -124
s80.167 -46 135.5 -46c57.333 0 111.666 19.333 162.999 58v-55zM135.005 167.999c0 66 44.334 98.998 133.001 98.998c48 0 90.667 -15 128 -45c10.667 -9.33301 16 -18.666 16 -27.999v-45c0 -9.33301 -5.33301 -19.333 -16 -30
c-40.667 -37.333 -83.334 -55.666 -128.001 -54.999c-88.667 1.33301 -133 36 -133 104z" />
    <glyph glyph-name="atilde" unicode="&#xe3;" horiz-adv-x="546" 
d="M446 705c-6.66699 -50 -17.833 -83.667 -33.5 -101s-35.834 -26 -60.501 -26c-22 0 -42 6 -60 18l-56 37c-12 7.33301 -22.667 11 -32 11c-22.667 0 -36.334 -20.667 -41.001 -62h-68c6.66699 50 17.834 83.667 33.501 101s35.834 26 60.501 26c22 0 42 -6 60 -18l56 -37
c13.333 -7.33301 24 -11 32 -11c12 0 21.167 4.33301 27.5 13s10.833 25 13.5 49h68zM411.001 0l76.0049 -0.000976562v332c-0.666992 60 -18.834 109.167 -54.501 147.5s-84.5 57.5 -146.5 57.5c-52.667 0 -117.334 -14 -194.001 -42c2 -8.66699 5.33301 -21.667 10 -39
s8 -30.333 10 -39c62.667 35.333 121.667 53 177 53c40.667 0 71.167 -13.333 91.5 -40s30.5 -61 30.5 -103v-49c-14.667 14.667 -35.834 27.834 -63.501 39.501s-58.5 17.5 -92.5 17.5c-60.667 0 -108.334 -14.5 -143.001 -43.5s-52 -70.5 -52 -124.5
c0 -52 17.5 -93.333 52.5 -124s80.167 -46 135.5 -46c57.333 0 111.666 19.333 162.999 58v-55zM135.006 167.999c0 66 44.334 98.998 133.001 98.998c48 0 90.667 -15 128 -45c10.667 -9.33301 16 -18.666 16 -27.999v-45c0 -9.33301 -5.33301 -19.333 -16 -30
c-40.667 -37.333 -83.334 -55.666 -128.001 -54.999c-88.667 1.33301 -133 36 -133 104z" />
    <glyph glyph-name="adieresis" unicode="&#xe4;" horiz-adv-x="546" 
d="M232 654c0 -33.333 -16 -50 -48 -50c-32.667 0 -49 16.667 -49 50c0 32.667 16.333 49 49 49c32 0 48 -16.333 48 -49zM421 654c0 -33.333 -16 -50 -48 -50c-32.667 0 -49 16.667 -49 50c0 32.667 16.333 49 49 49c32 0 48 -16.333 48 -49zM411 0l76.0049 -0.000976562
v332c-0.666992 60 -18.834 109.167 -54.501 147.5s-84.5 57.5 -146.5 57.5c-52.667 0 -117.334 -14 -194.001 -42c2 -8.66699 5.33301 -21.667 10 -39s8 -30.333 10 -39c62.667 35.333 121.667 53 177 53c40.667 0 71.167 -13.333 91.5 -40s30.5 -61 30.5 -103v-49
c-14.667 14.667 -35.834 27.834 -63.501 39.501s-58.5 17.5 -92.5 17.5c-60.667 0 -108.334 -14.5 -143.001 -43.5s-52 -70.5 -52 -124.5c0 -52 17.5 -93.333 52.5 -124s80.167 -46 135.5 -46c57.333 0 111.666 19.333 162.999 58v-55zM135.005 167.999
c0 66 44.334 98.998 133.001 98.998c48 0 90.667 -15 128 -45c10.667 -9.33301 16 -18.666 16 -27.999v-45c0 -9.33301 -5.33301 -19.333 -16 -30c-40.667 -37.333 -83.334 -55.666 -128.001 -54.999c-88.667 1.33301 -133 36 -133 104z" />
    <glyph glyph-name="aring" unicode="&#xe5;" horiz-adv-x="546" 
d="M393 669c0 -60 -38.333 -90 -115 -90c-77.333 0 -116 30 -116 90s38.667 90 116 90c76.667 0 115 -30 115 -90zM330 669c0 32.667 -17.333 49 -52 49c-35.333 0 -53 -16.333 -53 -49s17.667 -49 53 -49c34.667 0 52 16.333 52 49zM411 0l76.0049 -0.000976562v332
c-0.666992 60 -18.834 109.167 -54.501 147.5s-84.5 57.5 -146.5 57.5c-52.667 0 -117.334 -14 -194.001 -42c2 -8.66699 5.33301 -21.667 10 -39s8 -30.333 10 -39c62.667 35.333 121.667 53 177 53c40.667 0 71.167 -13.333 91.5 -40s30.5 -61 30.5 -103v-49
c-14.667 14.667 -35.834 27.834 -63.501 39.501s-58.5 17.5 -92.5 17.5c-60.667 0 -108.334 -14.5 -143.001 -43.5s-52 -70.5 -52 -124.5c0 -52 17.5 -93.333 52.5 -124s80.167 -46 135.5 -46c57.333 0 111.666 19.333 162.999 58v-55zM135.005 167.999
c0 66 44.334 98.998 133.001 98.998c48 0 90.667 -15 128 -45c10.667 -9.33301 16 -18.666 16 -27.999v-45c0 -9.33301 -5.33301 -19.333 -16 -30c-40.667 -37.333 -83.334 -55.666 -128.001 -54.999c-88.667 1.33301 -133 36 -133 104z" />
    <glyph glyph-name="ae" unicode="&#xe6;" horiz-adv-x="887" 
d="M489 151c0 -30 14.834 -53.1689 44.501 -69.502s64.5 -24.5 104.5 -24.5c52 0 109.667 22 173 66c0 -5.33301 -1.33301 -32 -4 -80c-14 -12 -37.333 -23.833 -70 -35.5s-67 -17.5 -103 -17.5c-60.667 0 -109.334 13.333 -146.001 40v-30l-62 -11
c-18.667 26 -41.334 39 -68.001 39c-16 0 -41 -6 -75 -18s-61 -18 -81 -18c-37.333 0 -70.166 15 -98.499 45s-42.5 70 -42.5 120c0 20 3.16699 39.167 9.5 57.5s16.833 36.333 31.5 54s36.167 31.834 64.5 42.501s62.166 16 101.499 16c33.333 0 63.666 -7 90.999 -21
s45 -28.333 53 -43v64c0 42 -10.167 76.333 -30.5 103s-50.833 40 -91.5 40c-55.333 0 -114.333 -17.667 -177 -53c-2 8.66699 -5.33301 21.667 -10 39s-8 30.333 -10 39c76.667 28 141.334 42 194.001 42c77.333 0 134 -29.667 170 -89c43.333 58.667 101.333 88 174 88
c53.333 1.33301 100.5 -16.5 141.5 -53.5s61.5 -82.167 61.5 -135.5c0 -47.333 -12.833 -80.833 -38.5 -100.5s-62.5 -29.5 -110.5 -29.5h-115c-25.333 0 -45.166 -5.66699 -59.499 -17s-21.5 -27.666 -21.5 -48.999zM412.001 68.998l0.000976562 74.0029
c-0.666992 31.333 -13.834 58.666 -39.501 81.999s-58.167 35 -97.5 35c-41.333 0 -74.833 -8.66699 -100.5 -26s-38.5 -43 -38.5 -77c0 -28.667 8 -50.834 24 -66.501s35.667 -24.834 59 -27.501c18.667 -2 42.167 2.5 70.5 13.5s48.833 16.5 61.5 16.5c12 0 23 -2 33 -6
s17.333 -8 22 -12zM488.002 332.001v-77.999c17.333 21.333 45.333 32 84 32c39.333 -0.666992 72.666 -1 99.999 -1s48.666 4.33301 63.999 13s23 25.667 23 51c0 30.667 -10.667 58.5 -32 83.5s-53.666 37.5 -96.999 37.5c-36.667 0 -68.667 -13.333 -96 -40
s-42.666 -59.334 -45.999 -98.001z" />
    <glyph glyph-name="ccedilla" unicode="&#xe7;" horiz-adv-x="484" 
d="M271 -52c34.667 -10 58.3301 -21.167 70.9971 -33.5s19 -29.833 19 -52.5c0 -54.667 -32.667 -82 -98 -82c-28.667 0 -59.334 3.33301 -92.001 10l11 55c30 -8 56 -12 78 -12c14 0 23.667 2.5 29 7.5s8 13.5 8 25.5s-5 20.833 -15 26.5s-32.667 12.834 -68 21.501l21 86
c-52 8.66699 -93.833 31.667 -125.5 69s-47.5 81 -47.5 131v135c0 54.667 21.667 102.167 65 142.5s93.333 60.5 150 60.5s110 -14.333 160 -43l-10.5 -34.5c-5 -16.333 -8.5 -28.5 -10.5 -36.5c-1.33301 0.666992 -6.83301 3.83398 -16.5 9.50098s-17.334 10 -23.001 13
s-14 6.66699 -25 11s-22.5 7.5 -34.5 9.5s-24.667 3 -38 3c-36.667 0 -69 -13.667 -97 -41s-42 -58.666 -42 -93.999v-135c0 -36 13.833 -67.5 41.5 -94.5s60.167 -40.5 97.5 -40.5c8.66699 0 17 0.333008 25 1s15.167 1.66699 21.5 3s12.833 3 19.5 5
s12.334 3.83301 17.001 5.5s9.83398 4 15.501 7l13 7c3 1.66699 6.83301 4.16699 11.5 7.5s7.83398 5.66602 9.50098 6.99902l8 6.5c3.66699 3 5.83398 4.83301 6.50098 5.5c0.666992 -2.66699 2.83398 -10.334 6.50098 -23.001l9.5 -33l5 -15c-4 -4 -10 -8.66699 -18 -14
s-26.167 -12.833 -54.5 -22.5s-58.833 -14.834 -91.5 -15.501z" />
    <glyph glyph-name="egrave" unicode="&#xe8;" horiz-adv-x="561" 
d="M333 582h-79l-124 151h108l95 -142v-9zM291 -5c-64.667 0 -118.833 17.168 -162.5 51.501s-65.5 88.833 -65.5 163.5v99c0 62 20.5 115.333 61.5 160s95.5 67 163.5 67c54 1.33301 102.667 -15.834 146 -51.501s65 -79.834 65 -132.501
c0 -47.333 -12.667 -80.166 -38 -98.499s-62.333 -27.5 -111 -27.5h-210v-39c0 -42 14.333 -73.333 43 -94s66 -31 112 -31c62.667 0 123 22.333 181 67c0 -6 -1.33301 -33 -4 -81c-14 -12 -38.5 -23.833 -73.5 -35.5s-70.833 -17.5 -107.5 -17.5zM287.001 470.001
c-39.333 0 -73.667 -13.999 -103 -41.999s-44.333 -62.333 -45 -103v-37h85h113c27.333 0 48.5 4.66699 63.5 14s22.5 26.666 22.5 51.999c0 29.333 -11.667 56 -35 80s-57 36 -101 36z" />
    <glyph glyph-name="eacute" unicode="&#xe9;" horiz-adv-x="562" 
d="M330 733h108l-124 -151h-79v9zM291 -5c-64.667 0 -118.833 17.168 -162.5 51.501s-65.5 88.833 -65.5 163.5v99c0 62 20.5 115.333 61.5 160s95.5 67 163.5 67c54 1.33301 102.667 -15.834 146 -51.501s65 -79.834 65 -132.501c0 -47.333 -12.667 -80.166 -38 -98.499
s-62.333 -27.5 -111 -27.5h-210v-39c0 -42 14.333 -73.333 43 -94s66 -31 112 -31c62.667 0 123 22.333 181 67c0 -6 -1.33301 -33 -4 -81c-14 -12 -38.5 -23.833 -73.5 -35.5s-70.833 -17.5 -107.5 -17.5zM287.001 470.001c-39.333 0 -73.667 -13.999 -103 -41.999
s-44.333 -62.333 -45 -103v-37h85h113c27.333 0 48.5 4.66699 63.5 14s22.5 26.666 22.5 51.999c0 29.333 -11.667 56 -35 80s-57 36 -101 36z" />
    <glyph glyph-name="ecircumflex" unicode="&#xea;" horiz-adv-x="561" 
d="M439 582h-79l-76 117l-75 -117h-77v9l90 142h127l90 -142v-9zM291 -5c-64.667 0 -118.833 17.168 -162.5 51.501s-65.5 88.833 -65.5 163.5v99c0 62 20.5 115.333 61.5 160s95.5 67 163.5 67c54 1.33301 102.667 -15.834 146 -51.501s65 -79.834 65 -132.501
c0 -47.333 -12.667 -80.166 -38 -98.499s-62.333 -27.5 -111 -27.5h-210v-39c0 -42 14.333 -73.333 43 -94s66 -31 112 -31c62.667 0 123 22.333 181 67c0 -6 -1.33301 -33 -4 -81c-14 -12 -38.5 -23.833 -73.5 -35.5s-70.833 -17.5 -107.5 -17.5zM287.001 470.001
c-39.333 0 -73.667 -13.999 -103 -41.999s-44.333 -62.333 -45 -103v-37h85h113c27.333 0 48.5 4.66699 63.5 14s22.5 26.666 22.5 51.999c0 29.333 -11.667 56 -35 80s-57 36 -101 36z" />
    <glyph glyph-name="edieresis" unicode="&#xeb;" horiz-adv-x="559" 
d="M238 654c0 -33.333 -16 -50 -48 -50c-32.667 0 -49 16.667 -49 50c0 32.667 16.333 49 49 49c32 0 48 -16.333 48 -49zM427 654c0 -33.333 -16 -50 -48 -50c-32.667 0 -49 16.667 -49 50c0 32.667 16.333 49 49 49c32 0 48 -16.333 48 -49zM291 -5
c-64.667 0 -118.833 17.168 -162.5 51.501s-65.5 88.833 -65.5 163.5v99c0 62 20.5 115.333 61.5 160s95.5 67 163.5 67c54 1.33301 102.667 -15.834 146 -51.501s65 -79.834 65 -132.501c0 -47.333 -12.667 -80.166 -38 -98.499s-62.333 -27.5 -111 -27.5h-210v-39
c0 -42 14.333 -73.333 43 -94s66 -31 112 -31c62.667 0 123 22.333 181 67c0 -6 -1.33301 -33 -4 -81c-14 -12 -38.5 -23.833 -73.5 -35.5s-70.833 -17.5 -107.5 -17.5zM287.001 470.001c-39.333 0 -73.667 -13.999 -103 -41.999s-44.333 -62.333 -45 -103v-37h85h113
c27.333 0 48.5 4.66699 63.5 14s22.5 26.666 22.5 51.999c0 29.333 -11.667 56 -35 80s-57 36 -101 36z" />
    <glyph glyph-name="igrave" unicode="&#xec;" horiz-adv-x="272" 
d="M178 582h-79l-124 151h108l95 -142v-9zM176 0v538l-76 -10v-528h76z" />
    <glyph glyph-name="iacute" unicode="&#xed;" horiz-adv-x="279" 
d="M195 733h108l-124 -151h-79v9zM176 0v538l-76 -10v-528h76z" />
    <glyph glyph-name="icircumflex" unicode="&#xee;" horiz-adv-x="277" 
d="M273 582h-71l-67 117l-67 -117h-69v9l81 142h113l80 -142v-9zM176 0v538l-76 -10v-528h76z" />
    <glyph glyph-name="idieresis" unicode="&#xef;" horiz-adv-x="277" 
d="M101 654c0 -33.333 -15 -50 -45 -50c-30.667 0 -46 16.667 -46 50c0 32.667 15.333 49 46 49c30 0 45 -16.333 45 -49zM268 654c0 -33.333 -15.333 -50 -46 -50s-46 16.667 -46 50c0 32.667 15.333 49 46 49c14 0 25.167 -4.16699 33.5 -12.5s12.5 -20.5 12.5 -36.5z
M176 0v538l-76 -10v-528h76z" />
    <glyph glyph-name="eth" unicode="&#xf0;" horiz-adv-x="571" 
d="M508 282c0 -98 -18.332 -171.167 -54.999 -219.5s-93.334 -72.5 -170.001 -72.5c-70.667 0 -125 22.833 -163 68.5s-57 111.167 -57 196.5c0 171.333 75 257 225 257c33.333 0 63 -4 89 -12c-18 38.667 -43.333 80.667 -76 126l-83 -51l-31 41l84 52l-56 72l72 38
l22.5 -29l23.5 -30l70 49l31 -41l-71 -50c51.333 -72.667 88.333 -140 111 -202s34 -126.333 34 -193zM424.001 281c0 48.667 -6.66699 96 -20 142c-32 10 -69 15 -111 15c-46.667 0 -82.5 -13.667 -107.5 -41s-37.5 -74.333 -37.5 -141c0 -128 45.333 -192 136 -192
c48.667 0 84.167 17.167 106.5 51.5s33.5 89.5 33.5 165.5z" />
    <glyph glyph-name="ntilde" unicode="&#xf1;" horiz-adv-x="623" 
d="M490 705c-6.66699 -50 -17.833 -83.667 -33.5 -101s-35.834 -26 -60.501 -26c-22 0 -42 6 -60 18l-56 37c-12 7.33301 -22.667 11 -32 11c-22.667 0 -36.334 -20.667 -41.001 -62h-68c6.66699 50 17.834 83.667 33.501 101s35.834 26 60.501 26c22 0 42 -6 60 -18l56 -37
c13.333 -7.33301 24 -11 32 -11c12 0 21.167 4.33301 27.5 13s10.833 25 13.5 49h68zM528.001 0v1v312c0 63.333 -16.667 116.5 -50 159.5s-79 64.5 -137 64.5c-64.667 0 -120 -24.667 -166 -74v74l-76 -15v-522h77c-0.666992 140 -1 248 -1 324
c0 42.667 13.5 77.167 40.5 103.5s59.833 39.5 98.5 39.5c38 0 70.5 -12.667 97.5 -38s40.5 -58.333 40.5 -99v-330h76z" />
    <glyph glyph-name="ograve" unicode="&#xf2;" horiz-adv-x="593" 
d="M339 582h-79l-124 151h108l95 -142v-9zM303 -5c66.667 0 121.334 22.168 164.001 66.501s64 101.166 64 170.499v71c0 67.333 -21.667 124.5 -65 171.5s-98.333 70.5 -165 70.5c-70.667 0 -128 -23.167 -172 -69.5s-66 -103.5 -66 -171.5v-67
c0 -72.667 21.667 -131.167 65 -175.5s101.666 -66.5 174.999 -66.5zM299 478.001c48.667 0 86.834 -15.998 114.501 -47.998s41.5 -71 41.5 -117v-86c0 -48.667 -13.833 -88.334 -41.5 -119.001s-65.834 -46 -114.501 -46c-48 0 -86.667 15.5 -116 46.5s-44 70.5 -44 118.5
v86c0 45.333 14.667 84.166 44 116.499s68 48.5 116 48.5z" />
    <glyph glyph-name="oacute" unicode="&#xf3;" horiz-adv-x="590" 
d="M344 733h108l-124 -151h-79v9zM303 -5c66.667 0 121.334 22.168 164.001 66.501s64 101.166 64 170.499v71c0 67.333 -21.667 124.5 -65 171.5s-98.333 70.5 -165 70.5c-70.667 0 -128 -23.167 -172 -69.5s-66 -103.5 -66 -171.5v-67
c0 -72.667 21.667 -131.167 65 -175.5s101.666 -66.5 174.999 -66.5zM299 478.001c48.667 0 86.834 -15.998 114.501 -47.998s41.5 -71 41.5 -117v-86c0 -48.667 -13.833 -88.334 -41.5 -119.001s-65.834 -46 -114.501 -46c-48 0 -86.667 15.5 -116 46.5s-44 70.5 -44 118.5
v86c0 45.333 14.667 84.166 44 116.499s68 48.5 116 48.5z" />
    <glyph glyph-name="ocircumflex" unicode="&#xf4;" horiz-adv-x="590" 
d="M453 582h-79l-76 117l-75 -117h-77v9l90 142h127l90 -142v-9zM303 -5c66.667 0 121.334 22.168 164.001 66.501s64 101.166 64 170.499v71c0 67.333 -21.667 124.5 -65 171.5s-98.333 70.5 -165 70.5c-70.667 0 -128 -23.167 -172 -69.5s-66 -103.5 -66 -171.5v-67
c0 -72.667 21.667 -131.167 65 -175.5s101.666 -66.5 174.999 -66.5zM299 478.001c48.667 0 86.834 -15.998 114.501 -47.998s41.5 -71 41.5 -117v-86c0 -48.667 -13.833 -88.334 -41.5 -119.001s-65.834 -46 -114.501 -46c-48 0 -86.667 15.5 -116 46.5s-44 70.5 -44 118.5
v86c0 45.333 14.667 84.166 44 116.499s68 48.5 116 48.5z" />
    <glyph glyph-name="otilde" unicode="&#xf5;" horiz-adv-x="592" 
d="M477 705c-6.66699 -50 -17.833 -83.667 -33.5 -101s-35.834 -26 -60.501 -26c-22 0 -42 6 -60 18l-56 37c-12 7.33301 -22.667 11 -32 11c-22.667 0 -36.334 -20.667 -41.001 -62h-68c6.66699 50 17.834 83.667 33.501 101s35.834 26 60.501 26c22 0 42 -6 60 -18l56 -37
c13.333 -7.33301 24 -11 32 -11c12 0 21.167 4.33301 27.5 13s10.833 25 13.5 49h68zM303.001 -5c66.667 0 121.334 22.168 164.001 66.501s64 101.166 64 170.499v71c0 67.333 -21.667 124.5 -65 171.5s-98.333 70.5 -165 70.5c-70.667 0 -128 -23.167 -172 -69.5
s-66 -103.5 -66 -171.5v-67c0 -72.667 21.667 -131.167 65 -175.5s101.666 -66.5 174.999 -66.5zM299.001 478.001c48.667 0 86.834 -15.998 114.501 -47.998s41.5 -71 41.5 -117v-86c0 -48.667 -13.833 -88.334 -41.5 -119.001s-65.834 -46 -114.501 -46
c-48 0 -86.667 15.5 -116 46.5s-44 70.5 -44 118.5v86c0 45.333 14.667 84.166 44 116.499s68 48.5 116 48.5z" />
    <glyph glyph-name="odieresis" unicode="&#xf6;" horiz-adv-x="590" 
d="M253 654c0 -33.333 -16 -50 -48 -50c-32.667 0 -49 16.667 -49 50c0 32.667 16.333 49 49 49c32 0 48 -16.333 48 -49zM442 654c0 -33.333 -16 -50 -48 -50c-32.667 0 -49 16.667 -49 50c0 32.667 16.333 49 49 49c32 0 48 -16.333 48 -49zM303 -5
c66.667 0 121.334 22.168 164.001 66.501s64 101.166 64 170.499v71c0 67.333 -21.667 124.5 -65 171.5s-98.333 70.5 -165 70.5c-70.667 0 -128 -23.167 -172 -69.5s-66 -103.5 -66 -171.5v-67c0 -72.667 21.667 -131.167 65 -175.5s101.666 -66.5 174.999 -66.5z
M299 478.001c48.667 0 86.834 -15.998 114.501 -47.998s41.5 -71 41.5 -117v-86c0 -48.667 -13.833 -88.334 -41.5 -119.001s-65.834 -46 -114.501 -46c-48 0 -86.667 15.5 -116 46.5s-44 70.5 -44 118.5v86c0 45.333 14.667 84.166 44 116.499s68 48.5 116 48.5z" />
    <glyph glyph-name="divide" unicode="&#xf7;" horiz-adv-x="519" 
d="M388 288v-41h-258v41h258zM320 74c0 -18 -5.5 -32.167 -16.5 -42.5s-25.833 -15.5 -44.5 -15.5c-18 0 -32.5 5.16699 -43.5 15.5s-16.5 24.5 -16.5 42.5s5.5 32.167 16.5 42.5s25.5 15.5 43.5 15.5s32.667 -5 44 -15s17 -24.333 17 -43zM320 460
c0 -18 -5.5 -32.167 -16.5 -42.5s-25.833 -15.5 -44.5 -15.5c-18 0 -32.5 5.16699 -43.5 15.5s-16.5 24.5 -16.5 42.5s5.5 32 16.5 42s25.5 15 43.5 15s32.667 -5 44 -15s17 -24 17 -42z" />
    <glyph glyph-name="oslash" unicode="&#xf8;" horiz-adv-x="585" 
d="M442 480c47.333 -46 70.999 -102.667 70.999 -170v-95c0 -60.667 -20.667 -113.167 -62 -157.5s-93.666 -66.5 -156.999 -66.5c-50 0 -93.333 12 -130 36l-63 -100h-42l76 123c-48 44 -72 100.333 -72 169v93c0 62 21.333 115.5 64 160.5s97.667 67.5 165 67.5
c44 0 84.333 -12.333 121 -37l65 104h43zM138.999 219c0 -41.333 11.333 -77 34 -107l204 332c-26 18 -55 27 -87 27c-46.667 0 -83.5 -16.5 -110.5 -49.5s-40.5 -70.167 -40.5 -111.5v-91zM436.999 219v91c0 41.333 -11.333 77.333 -34 108l-203 -332
c25.333 -18.667 55.333 -28 90 -28c48 0 84.5 15.167 109.5 45.5s37.5 68.833 37.5 115.5z" />
    <glyph glyph-name="ugrave" unicode="&#xf9;" horiz-adv-x="619" 
d="M357 582h-79l-124 151h108l95 -142v-9zM99 537v-0.998047v-309c0 -76 17.5 -133 52.5 -171s84.167 -57 147.5 -57c58 0 109 23 153 69v-68h76v537h-76v-325c0 -42.667 -13.167 -77.334 -39.5 -104.001s-59.833 -40 -100.5 -40c-43.333 0 -77 12.667 -101 38
s-36 60.666 -36 105.999v325h-76z" />
    <glyph glyph-name="uacute" unicode="&#xfa;" horiz-adv-x="623" 
d="M347 733h108l-124 -151h-79v9zM99 537v-0.998047v-309c0 -76 17.5 -133 52.5 -171s84.167 -57 147.5 -57c58 0 109 23 153 69v-68h76v537h-76v-325c0 -42.667 -13.167 -77.334 -39.5 -104.001s-59.833 -40 -100.5 -40c-43.333 0 -77 12.667 -101 38
s-36 60.666 -36 105.999v325h-76z" />
    <glyph glyph-name="ucircumflex" unicode="&#xfb;" horiz-adv-x="621" 
d="M467 582h-79l-76 117l-75 -117h-77v9l90 142h127l90 -142v-9zM99 537v-0.998047v-309c0 -76 17.5 -133 52.5 -171s84.167 -57 147.5 -57c58 0 109 23 153 69v-68h76v537h-76v-325c0 -42.667 -13.167 -77.334 -39.5 -104.001s-59.833 -40 -100.5 -40
c-43.333 0 -77 12.667 -101 38s-36 60.666 -36 105.999v325h-76z" />
    <glyph glyph-name="udieresis" unicode="&#xfc;" horiz-adv-x="624" 
d="M268 654c0 -33.333 -16 -50 -48 -50c-32.667 0 -49 16.667 -49 50c0 32.667 16.333 49 49 49c32 0 48 -16.333 48 -49zM457 654c0 -33.333 -16 -50 -48 -50c-32.667 0 -49 16.667 -49 50c0 32.667 16.333 49 49 49c32 0 48 -16.333 48 -49zM99 537v-0.998047v-309
c0 -76 17.5 -133 52.5 -171s84.167 -57 147.5 -57c58 0 109 23 153 69v-68h76v537h-76v-325c0 -42.667 -13.167 -77.334 -39.5 -104.001s-59.833 -40 -100.5 -40c-43.333 0 -77 12.667 -101 38s-36 60.666 -36 105.999v325h-76z" />
    <glyph glyph-name="yacute" unicode="&#xfd;" horiz-adv-x="519" 
d="M311 733h108l-124 -151h-79v9zM484 537l-206.002 -635c-16.667 -48.667 -40.667 -80 -72 -94s-75.333 -17.667 -132 -11l7 72c44 -6.66699 75.333 -5.5 94 3.5s34.334 34.5 47.001 76.5l9 40l-195 548h80l152 -447c0 0.666992 10.333 36 31 106l63.5 212.5
c21.667 71.667 34.834 114.5 39.501 128.5h82z" />
    <glyph glyph-name="thorn" unicode="&#xfe;" horiz-adv-x="586" 
d="M175 474l0.00390625 303l-75 -19v-979c12 4 26.667 8.33301 44 13s27.666 7.66699 30.999 9v151c0 20 5.16699 35.667 15.5 47s23.166 17 38.499 17c13.333 0 32.666 -4.5 57.999 -13.5s50.666 -13.5 75.999 -13.5c38 0 69.333 10.167 94 30.5s41.334 43.833 50.001 70.5
s13 55.667 13 87v151c0 62 -19.5 113 -58.5 153s-88.5 60 -148.5 60c-26.667 0 -52.834 -6.33301 -78.501 -19s-45.5 -28.667 -59.5 -48zM366.004 62c-21.333 0 -45 4 -71 12s-45.667 12 -59 12c-12 0 -23.833 -2.5 -35.5 -7.5s-19.834 -10.833 -24.501 -17.5v276
c0.666992 42 13 75 37 99s57.333 36 100 36c41.333 0 73.5 -12.5 96.5 -37.5s34.5 -60.5 34.5 -106.5v-149c0 -34 -6.16699 -62 -18.5 -84s-32.166 -33 -59.499 -33z" />
    <glyph glyph-name="ydieresis" unicode="&#xff;" horiz-adv-x="519" 
d="M219 654c0 -33.333 -16 -50 -48 -50c-32.667 0 -49 16.667 -49 50c0 32.667 16.333 49 49 49c32 0 48 -16.333 48 -49zM408 654c0 -33.333 -16 -50 -48 -50c-32.667 0 -49 16.667 -49 50c0 32.667 16.333 49 49 49c32 0 48 -16.333 48 -49zM482 537l-206.002 -635
c-16.667 -48.667 -40.667 -80 -72 -94s-75.333 -17.667 -132 -11l7 72c44 -6.66699 75.333 -5.5 94 3.5s34.334 34.5 47.001 76.5l9 40l-195 548h80l152 -447c0 0.666992 10.333 36 31 106l63.5 212.5c21.667 71.667 34.834 114.5 39.501 128.5h82z" />
    <glyph glyph-name="dotlessi" unicode="&#x131;" horiz-adv-x="289" 
d="M189 0h-89v531h89v-531z" />
    <glyph glyph-name="Lslash" unicode="&#x141;" horiz-adv-x="539" 
d="M187 73h336l-13 -73h-402v305l-67 -29v70l67 29v374h79v-339l108 48v-69l-108 -48v-268z" />
    <glyph glyph-name="lslash" unicode="&#x142;" horiz-adv-x="277" 
d="M239 448v-70l-61 -27v-351h-78v316l-66 -29v69l66 30v363h78v-329z" />
    <glyph glyph-name="OE" unicode="&#x152;" horiz-adv-x="1025" 
d="M978 -1h-430.999v75c-49.333 -56.667 -112 -84.667 -188 -84h-26c-80 0 -144.167 29.5 -192.5 88.5s-72.5 132.833 -72.5 221.5v147c-0.666992 88.667 23.333 162.5 72 221.5s113 88.5 193 88.5h26c76 0.666992 138.667 -26.333 188 -81v72h425v-76h-348v-189
c2.66699 -32 7 -51.667 13 -59s24 -12 54 -14h250v-74h-265c-2.66699 0 -6.83398 -0.333008 -12.501 -1s-9.16699 -1 -10.5 -1s-3.83301 -0.5 -7.5 -1.5s-6.16699 -2 -7.5 -3s-2.83301 -2.5 -4.5 -4.5s-3 -4.33301 -4 -7s-1.83301 -6 -2.5 -10c-2 -10 -3 -25.333 -3 -46
v-188h344zM357.001 62c62 -0.666992 109 20 141 62s47.667 99.333 47 172v155c-2 74.667 -18.167 132.5 -48.5 173.5s-76.833 61.167 -139.5 60.5h-22c-119.333 0 -181.333 -78 -186 -234v-155c0 -82 17 -142.333 51 -181c30 -33.333 75 -51 135 -53h22z" />
    <glyph glyph-name="oe" unicode="&#x153;" horiz-adv-x="920" 
d="M514 155c0 -30 14.8301 -53.668 44.4971 -71.001s64.5 -26 104.5 -26c52 0 109.667 22 173 66c0 -5.33301 -1.33301 -32 -4 -80c-14 -12 -37.333 -23.833 -70 -35.5s-67 -17.5 -103 -17.5c-88 0 -151.333 29.667 -190 89c-43.333 -60 -102 -90 -176 -90
c-69.333 0 -125.166 22.333 -167.499 67s-63.5 98.667 -63.5 162v92c0 62.667 21.333 116.334 64 161.001s97.667 67 165 67c38.667 0 73.834 -8.83301 105.501 -26.5s57.167 -41.834 76.5 -72.501c41.333 64 102.333 96 183 96c53.333 1.33301 100.5 -16 141.5 -52
s61.5 -80.333 61.5 -133c0 -47.333 -12.833 -80.833 -38.5 -100.5s-62.5 -29.5 -110.5 -29.5h-115c-25.333 0 -45.166 -5.66699 -59.499 -17s-21.5 -27.666 -21.5 -48.999zM435.997 218.999l-0.000976562 91c0 42.667 -12.667 80 -38 112s-61.666 48 -108.999 48
c-46.667 0 -83.5 -16.5 -110.5 -49.5s-40.5 -69.833 -40.5 -110.5v-91c0 -46 13.333 -84.333 40 -115s63.667 -46 111 -46c48 0 84.5 15 109.5 45s37.5 68.667 37.5 116zM511.996 323.999l0.000976562 -66c16 20.667 44.333 31 85 31h100c27.333 0 48.666 4.33301 63.999 13
s23 25.667 23 51c0 30 -10.667 57 -32 81s-53.666 36 -96.999 36c-39.333 0 -72.833 -14.167 -100.5 -42.5s-41.834 -62.833 -42.501 -103.5z" />
    <glyph glyph-name="Scaron" unicode="&#x160;" horiz-adv-x="599" 
d="M359 805h-121l-79 107v10h75l66 -88l64 88h73v-10zM93 117l-10.001 -84.002c79.333 -30 153.333 -45 222 -45c61.333 0 113.5 12.5 156.5 37.5s70.833 63.167 83.5 114.5c12.667 48 9.5 93.833 -9.5 137.5s-56.5 75.5 -112.5 95.5c-4.66699 2 -64.667 20.667 -180 56
c-36 10.667 -62.667 29.5 -80 56.5s-21.666 59.5 -12.999 97.5c8 31.333 25.667 55.833 53 73.5s60 27.5 98 29.5c36.667 2 74.334 -3 113.001 -15s70.667 -27.333 96 -46l5 80c-33.333 20.667 -73.5 35 -120.5 43s-93 9 -138 3s-85.167 -22.667 -120.5 -50
s-57.333 -63.666 -66 -108.999c-10 -54 -3 -101.167 21 -141.5s63.667 -68.833 119 -85.5c12.667 -4 30.5 -9.16699 53.5 -15.5s43.333 -12.166 61 -17.499s34.167 -10.666 49.5 -15.999c69.333 -25.333 100.666 -72 93.999 -140c-4 -40.667 -20.167 -70.834 -48.5 -90.501
s-62.333 -28.834 -102 -27.501s-79 7.33301 -118 18s-74.5 24.334 -106.5 41.001z" />
    <glyph glyph-name="scaron" unicode="&#x161;" horiz-adv-x="480" 
d="M100 733h78l77 -118l74 118h77v-9l-89 -142h-127l-90 142v9zM272 -10c50 -1.33301 91.502 12.4971 124.502 41.4971s49.833 67.167 50.5 114.5c-0.666992 60.667 -24.334 103 -71.001 127c-14 7.33301 -30.667 13 -50 17s-41.5 7.16699 -66.5 9.5
s-43.5 4.83301 -55.5 7.5c-51.333 10.667 -74 41 -68 91c6.66699 56.667 45.667 83.334 117 80.001c20.667 -1.33301 49.834 -6.16602 87.501 -14.499s61.834 -12.5 72.501 -12.5c7.33301 28 12 50.333 14 67c-14.667 0 -40 3.66699 -76 11s-67 11.333 -93 12
c-120.667 3.33301 -186 -44.667 -196 -144c-2 -22.667 1.83301 -46 11.5 -70s23.5 -42.333 41.5 -55c7.33301 -5.33301 15.833 -10 25.5 -14s18.167 -7.16699 25.5 -9.5s17.666 -4.83301 30.999 -7.5s23.166 -4.5 29.499 -5.5s17.666 -2.5 33.999 -4.5l32.5 -4
c27.333 -3.33301 48 -13.833 62 -31.5s19.333 -39.167 16 -64.5c-3.33301 -26.667 -13 -45.667 -29 -57s-39.667 -17 -71 -17c-17.333 0 -46.333 5 -87 15s-72.667 14 -96 12c-4 -17.333 -7.33301 -40.666 -10 -69.999h1c26 1.33301 60.167 -2.16699 102.5 -10.5
s72.5 -12.833 90.5 -13.5z" />
    <glyph glyph-name="Ydieresis" unicode="&#x178;" horiz-adv-x="564" 
d="M237 862c0 -14.667 -4.16797 -26 -12.501 -34s-20.166 -12 -35.499 -12c-31.333 0 -47 15.333 -47 46c0 29.333 16 44 48 44c14 0 25.333 -3.66699 34 -11s13 -18.333 13 -33zM421.999 862c0 -30.667 -15.666 -46 -46.999 -46c-14.667 0 -26.334 4 -35.001 12
s-13 19.333 -13 34c0 29.333 16 44 48 44c31.333 0 47 -14.667 47 -44zM469 749l85.999 0.000976562c-38.667 -73.333 -91 -178 -157 -314l-25 -48.5c-12.667 -24.333 -22 -43.5 -28 -57.5c-16 -36 -24 -72.333 -24 -109v-220h-78v221c0 36 -6.66699 69.333 -20 100l-15 31
l-20 42.5c-6.66699 14.333 -14 29.166 -22 44.499c-6.66699 12.667 -31.167 62.167 -73.5 148.5s-69.166 140.166 -80.499 161.499h86l67.5 -137l68.5 -139c22 -46 38 -85.667 48 -119c8 28.667 24.333 67.334 49 116.001l48.5 97.5l48.5 99z" />
    <glyph glyph-name="Zcaron" unicode="&#x17d;" horiz-adv-x="588" 
d="M360 788h-121l-79 107v10h75l66 -88l64 88h73v-10zM544 674l-187.5 -271l-225.5 -328h408v-75h-473l-23 92l402 581h-367l-18 76h463z" />
    <glyph glyph-name="zcaron" unicode="&#x17e;" horiz-adv-x="511" 
d="M104 733h78l77 -118l74 118h77v-9l-89 -142h-127l-90 142v9zM444 443l-146.5 -180l-158.5 -192h316v-71h-371l-30 87l162.5 198c83 100.667 132.5 160 148.5 178h-283l-6 74h367h1v-94z" />
    <glyph glyph-name="florin" unicode="&#x192;" horiz-adv-x="573" 
d="M479 737l-5.99902 -81c-20 4 -39.333 6 -58 6c-29.333 0 -50.833 -6.5 -64.5 -19.5s-20.5 -35.167 -20.5 -66.5v-165h149v-77h-149v-289c0 -60.667 -14.5 -106.5 -43.5 -137.5s-69.833 -46.5 -122.5 -46.5c-26 0 -48.333 2 -67 6l6 81c19.333 -4 37.333 -6 54 -6
c29.333 0 50.666 6.5 63.999 19.5s20 35.167 20 66.5v306h-138v77h138v148c0 60.667 14.5 106.5 43.5 137.5s69.833 46.5 122.5 46.5c28 0 52 -2 72 -6z" />
    <glyph glyph-name="circumflex" unicode="&#x2c6;" 
d="M403 597h-79l-76 117l-75 -117h-77v9l90 142h127l90 -142v-9z" />
    <glyph glyph-name="caron" unicode="&#x2c7;" 
d="M97 749h78l77 -118l74 118h77v-9l-89 -142h-127l-90 142v9z" />
    <glyph glyph-name="breve" unicode="&#x2d8;" 
d="M337 749h66.999c-7.33301 -54.667 -23.833 -94.167 -49.5 -118.5s-60.834 -36.5 -105.501 -36.5c-45.333 0 -80.666 12 -105.999 36s-41.666 63.667 -48.999 119h69c3.33301 -31.333 11.833 -54.166 25.5 -68.499s34.167 -21.5 61.5 -21.5
c26.667 0 46.667 7.16699 60 21.5s22.333 37.166 27 68.499z" />
    <glyph glyph-name="dotaccent" unicode="&#x2d9;" 
d="M306 679c0 -17.333 -5.00098 -30.833 -15.001 -40.5s-23.667 -14.5 -41 -14.5s-31.166 4.83301 -41.499 14.5s-15.5 23.167 -15.5 40.5c0 16.667 5 29.667 15 39s24 14 42 14c16.667 0 30.167 -4.5 40.5 -13.5s15.5 -22.167 15.5 -39.5z" />
    <glyph glyph-name="ring" unicode="&#x2da;" 
d="M366 689c0 -60 -38.333 -90 -115 -90c-77.333 0 -116 30 -116 90s38.667 90 116 90c76.667 0 115 -30 115 -90zM303 689c0 32.667 -17.333 49 -52 49c-35.333 0 -53 -16.333 -53 -49s17.667 -49 53 -49c34.667 0 52 16.333 52 49z" />
    <glyph glyph-name="ogonek" unicode="&#x2db;" 
d="M305 35l47 -9.99902c-54.667 -41.333 -89.834 -71.333 -105.501 -90s-23.5 -37.334 -23.5 -56.001c0 -28 16 -42 48 -42c13.333 0 30.333 3.33301 51 10l10 -54c-26 -8.66699 -51 -13 -75 -13c-72 0 -108 29.667 -108 89c0 29.333 9.83301 54 29.5 74
s61.834 50.667 126.501 92z" />
    <glyph glyph-name="tilde" unicode="&#x2dc;" 
d="M425 725c-6.66699 -50 -17.833 -83.667 -33.5 -101s-35.834 -26 -60.501 -26c-22 0 -42 6 -60 18l-56 37c-12 7.33301 -22.667 11 -32 11c-22.667 0 -36.334 -20.667 -41.001 -62h-68c6.66699 50 17.834 83.667 33.501 101s35.834 26 60.501 26c22 0 42 -6 60 -18l56 -37
c13.333 -7.33301 24 -11 32 -11c12 0 21.167 4.33301 27.5 13s10.833 25 13.5 49h68z" />
    <glyph glyph-name="hungarumlaut" unicode="&#x2dd;" 
d="M67 598v9l92 142h102l-121 -151h-73zM252 598v9l92 142h101l-120 -151h-73z" />
    <glyph glyph-name="endash" unicode="&#x2013;" 
d="M468 228h-436v75h436v-75z" />
    <glyph glyph-name="emdash" unicode="&#x2014;" horiz-adv-x="1000" 
d="M968 228h-936v75h936v-75z" />
    <glyph glyph-name="quoteleft" unicode="&#x2018;" horiz-adv-x="232" 
d="M38 616c0 35.333 8.16699 65.666 24.5 90.999s45.5 50 87.5 74l44 -55c-32.667 -16.667 -53.5 -31 -62.5 -43s-13.5 -28.333 -13.5 -49v-9h15c12 0 21.667 -3.66699 29 -11s11 -17.666 11 -30.999c0 -16 -5.66699 -28.833 -17 -38.5s-26.333 -14.5 -45 -14.5
c-22 0 -39.667 7.16699 -53 21.5s-20 35.833 -20 64.5z" />
    <glyph glyph-name="quoteright" unicode="&#x2019;" horiz-adv-x="232" 
d="M194 693c0 -35.333 -8.16699 -65.666 -24.5 -90.999s-45.5 -50 -87.5 -74l-44 55c32.667 16.667 53.5 31 62.5 43s13.5 28.333 13.5 49v9h-15c-12 0 -21.667 3.66699 -29 11s-11 17.666 -11 30.999c0 16 5.66699 28.833 17 38.5s26.333 14.5 45 14.5
c22 0 39.667 -7.16699 53 -21.5s20 -35.833 20 -64.5z" />
    <glyph glyph-name="quotesinglbase" unicode="&#x201a;" horiz-adv-x="232" 
d="M194 21c0 -35.333 -8.16699 -65.666 -24.5 -90.999s-45.5 -50 -87.5 -74l-44 55c32.667 16.667 53.5 31 62.5 43s13.5 28.333 13.5 49v9h-15c-12 0 -21.667 3.66699 -29 11s-11 17.666 -11 30.999c0 16 5.66699 28.833 17 38.5s26.333 14.5 45 14.5
c22 0 39.667 -7.16699 53 -21.5s20 -35.833 20 -64.5z" />
    <glyph glyph-name="quotedblleft" unicode="&#x201c;" horiz-adv-x="406" 
d="M212 613c0 35.333 8.16699 65.666 24.5 90.999s45.5 50 87.5 74l44 -55c-32.667 -16.667 -53.5 -31 -62.5 -43s-13.5 -28.333 -13.5 -49v-9h15c12 0 21.667 -3.66699 29 -11s11 -17.666 11 -30.999c0 -16 -5.66699 -28.833 -17 -38.5s-26.333 -14.5 -45 -14.5
c-22 0 -39.667 7.16699 -53 21.5s-20 35.833 -20 64.5zM38 613c0 35.333 8.16699 65.666 24.5 90.999s45.5 50 87.5 74l44 -55c-32.667 -16.667 -53.5 -31 -62.5 -43s-13.5 -28.333 -13.5 -49v-9h15c12 0 21.667 -3.66699 29 -11s11 -17.666 11 -30.999
c0 -16 -5.66699 -28.833 -17 -38.5s-26.333 -14.5 -45 -14.5c-22 0 -39.667 7.16699 -53 21.5s-20 35.833 -20 64.5z" />
    <glyph glyph-name="quotedblright" unicode="&#x201d;" horiz-adv-x="406" 
d="M368 692c0 -35.333 -8.16699 -65.666 -24.5 -90.999s-45.5 -50 -87.5 -74l-44 55c32.667 16.667 53.5 31 62.5 43s13.5 28.333 13.5 49v9h-15c-12 0 -21.667 3.66699 -29 11s-11 17.666 -11 30.999c0 16 5.66699 28.833 17 38.5s26.333 14.5 45 14.5
c22 0 39.667 -7.16699 53 -21.5s20 -35.833 20 -64.5zM194 692c0 -35.333 -8.16699 -65.666 -24.5 -90.999s-45.5 -50 -87.5 -74l-44 55c32.667 16.667 53.5 31 62.5 43s13.5 28.333 13.5 49v9h-15c-12 0 -21.667 3.66699 -29 11s-11 17.666 -11 30.999
c0 16 5.66699 28.833 17 38.5s26.333 14.5 45 14.5c22 0 39.667 -7.16699 53 -21.5s20 -35.833 20 -64.5z" />
    <glyph glyph-name="quotedblbase" unicode="&#x201e;" horiz-adv-x="406" 
d="M194 21c0 -35.333 -8.16699 -65.666 -24.5 -90.999s-45.5 -50 -87.5 -74l-44 55c32.667 16.667 53.5 31 62.5 43s13.5 28.333 13.5 49v9h-15c-12 0 -21.667 3.66699 -29 11s-11 17.666 -11 30.999c0 16 5.66699 28.833 17 38.5s26.333 14.5 45 14.5
c22 0 39.667 -7.16699 53 -21.5s20 -35.833 20 -64.5zM368 21c0 -35.333 -8.16699 -65.666 -24.5 -90.999s-45.5 -50 -87.5 -74l-44 55c32.667 16.667 53.5 31 62.5 43s13.5 28.333 13.5 49v9h-15c-12 0 -21.667 3.66699 -29 11s-11 17.666 -11 30.999
c0 16 5.66699 28.833 17 38.5s26.333 14.5 45 14.5c22 0 39.667 -7.16699 53 -21.5s20 -35.833 20 -64.5z" />
    <glyph glyph-name="dagger" unicode="&#x2020;" horiz-adv-x="550" 
d="M499 457h-185v-457h-80v457h-185v75h185v201h80v-201h185v-75z" />
    <glyph glyph-name="daggerdbl" unicode="&#x2021;" horiz-adv-x="550" 
d="M494 197h-185v-197h-70v197h-185v65h185v209h-185v66h185v196h70v-196h185v-66h-185v-209h185v-65z" />
    <glyph glyph-name="bullet" unicode="&#x2022;" 
d="M377 138h-254v253h254v-253z" />
    <glyph glyph-name="ellipsis" unicode="&#x2026;" horiz-adv-x="705" 
d="M413 51c0 -18 -5.5 -32.167 -16.5 -42.5s-25.833 -15.5 -44.5 -15.5c-18 0 -32.667 5.16699 -44 15.5s-17 24.5 -17 42.5s5.5 32.167 16.5 42.5s25.833 15.5 44.5 15.5c18 0 32.667 -5 44 -15s17 -24.333 17 -43zM630 51c0 -18 -5.5 -32.167 -16.5 -42.5
s-25.833 -15.5 -44.5 -15.5c-18 0 -32.667 5.16699 -44 15.5s-17 24.5 -17 42.5s5.5 32.167 16.5 42.5s25.833 15.5 44.5 15.5c18 0 32.667 -5 44 -15s17 -24.333 17 -43zM197 51c0 -18 -5.5 -32.167 -16.5 -42.5s-25.833 -15.5 -44.5 -15.5c-18 0 -32.667 5.16699 -44 15.5
s-17 24.5 -17 42.5s5.5 32.167 16.5 42.5s25.833 15.5 44.5 15.5c18 0 32.667 -5 44 -15s17 -24.333 17 -43z" />
    <glyph glyph-name="perthousand" unicode="&#x2030;" horiz-adv-x="1208" 
d="M586 679l-262 -679h-55l263 679h54zM312 633c24 -35.333 35.999 -77.667 35.999 -127v-30c0 -49.333 -12 -91.333 -36 -126c-26 -38.667 -61.333 -58 -106 -58h-11c-45.333 0 -81 19.667 -107 59c-23.333 35.333 -35 77 -35 125v30c0 49.333 11.667 91.333 35 126
c26.667 38.667 62.334 58 107.001 58h11c44.667 0 80 -19 106 -57zM136.999 379.999c15.333 -22.667 36.333 -34.001 63 -34.001c28 0 49.667 13 65 39c13.333 22.667 20 52 20 88v36c0 36.667 -6.33301 66.334 -19 89.001c-14 25.333 -36 38 -66 38
c-28.667 0 -50 -13 -64 -39c-12 -20.667 -18.667 -50 -20 -88v-36c0 -39.333 7 -70.333 21 -93zM763.999 330.998c24 -35.333 36.001 -77.333 36.001 -126v-31c0 -49.333 -12 -91 -36 -125c-26 -39.333 -61.333 -59 -106 -59h-11c-44.667 0 -80.334 19.667 -107.001 59
c-23.333 35.333 -35 77 -35 125v31c0 48.667 12 90.667 36 126c26 38.667 61.333 58 106 58h11c44.667 0 80 -19.333 106 -58zM590 78.998c14 -23.333 34.667 -35.001 62 -35.001c29.333 0 51 13 65 39c13.333 22.667 20 52 20 88v37c0 36.667 -6.33301 66.334 -19 89.001
c-14 24.667 -36 37 -66 37c-28.667 0 -50 -13 -64 -39c-12 -21.333 -18.667 -50.333 -20 -87v-37c0 -40 7.33301 -70.667 22 -92zM1118 330.997c24 -35.333 36.001 -77.333 36.001 -126v-31c0 -49.333 -12 -91 -36 -125c-26 -39.333 -61.333 -59 -106 -59h-11
c-44.667 0 -80.334 19.667 -107.001 59c-23.333 35.333 -35 77 -35 125v31c0 48.667 12 90.667 36 126c26 38.667 61.333 58 106 58h11c44.667 0 80 -19.333 106 -58zM944.001 78.9971c14 -23.333 34.667 -35.001 62 -35.001c29.333 0 51 13 65 39
c13.333 22.667 20 52 20 88v37c0 36.667 -6.33301 66.334 -19 89.001c-14 24.667 -36 37 -66 37c-28.667 0 -50 -13 -64 -39c-12 -21.333 -18.667 -50.333 -20 -87v-37c0 -40 7.33301 -70.667 22 -92z" />
    <glyph glyph-name="guilsinglleft" unicode="&#x2039;" horiz-adv-x="319" 
d="M272 41h-80l-144 231l144 231h80l-126 -231z" />
    <glyph glyph-name="guilsinglright" unicode="&#x203a;" horiz-adv-x="319" 
d="M272 272l-145 -231h-79l125 231l-125 231h79z" />
    <glyph glyph-name="fraction" unicode="&#x2044;" horiz-adv-x="160" 
d="M241 733l-262 -733h-60l262 733h60z" />
    <glyph glyph-name="Euro" unicode="&#x20ac;" horiz-adv-x="586" 
d="M527 117c1.33301 -2.66699 10.665 -27.998 27.998 -75.998c-18 -9.33301 -34.667 -17 -50 -23c-46.667 -18 -85.334 -27.333 -116.001 -28h-19c-73.333 2 -133.333 30.667 -180 86c-41.333 47.333 -64.666 109.666 -69.999 186.999h-63v53h63v119h-63v53h63
c4 75.333 27.333 138.333 70 189c45.333 57.333 105.333 87 180 89c66 1.33301 127.667 -15 185 -49c-12.667 -36.667 -22 -62 -28 -76c-48 32 -97 48.667 -147 50h-7c-49.333 -0.666992 -90.666 -21 -123.999 -61c-30 -36.667 -47 -84 -51 -142h287l-21 -53h-267v-119h288
l-21 -53h-266c4.66699 -58.667 21.667 -105.334 51 -140.001c32.667 -36.667 74 -56 124 -58h14c38.667 2.66699 85.334 20 140.001 52z" />
    <glyph glyph-name="trademark" unicode="&#x2122;" horiz-adv-x="782" 
d="M173 721c10.667 6.66699 28.333 10 53 10h77v-43h-77c-10 0 -16.667 -0.333008 -20 -1c-4.66699 -0.666992 -8 -2.66699 -10 -6c-1.33301 -2.66699 -2 -6 -2 -10v-2v-1v-310h-45v311v5c0 3.33301 -0.666992 6.33301 -2 9c-2 2 -4.33301 3.33301 -7 4
c-2 0.666992 -10.667 1 -26 1h-73v43h78c24.667 0 42.667 -3.33301 54 -10zM646.999 731h68v-373h-46v303l-97 -293h-44l-97 292v-302h-46v373h69l96 -296l96 293z" />
    <glyph glyph-name="minus" unicode="&#x2212;" 
d="M440 233h-380v67h380v-67z" />
    <glyph glyph-name="fi" unicode="&#xfb01;" horiz-adv-x="612" 
d="M470 626c-13.333 0 -24.5 4.66699 -33.5 14s-13.5 20.333 -13.5 33s4.66699 23.5 14 32.5s20.333 13.5 33 13.5h6h2c12.667 0 23.334 -4.5 32.001 -13.5s13 -19.833 13 -32.5c0 -13.333 -4.33301 -24.5 -13 -33.5s-19.334 -13.5 -32.001 -13.5h-5h-3zM438 535l74 2.00195
v-537h-76v475h-270v-475h-74v475h-68v60h68v36c2 55.333 17.5 98.666 46.5 129.999s68.833 47.333 119.5 48l83 -7l-2 -72c-4 1.33301 -9.16699 2.66602 -15.5 3.99902s-17.5 3 -33.5 5s-29.333 2.33301 -40 1c-30 -2.66699 -51.5 -13.167 -64.5 -31.5
s-19.5 -45.5 -19.5 -81.5v-32h272z" />
    <glyph glyph-name="fl" unicode="&#xfb02;" horiz-adv-x="631" 
d="M455 746l78.001 4.00195v-750h-78v681h-48c-6.66699 0 -26 1 -58 3s-53.333 2.33301 -64 1c-32.667 -2.66699 -59.667 -13.834 -81 -33.501s-32 -46.167 -32 -79.5v-37h162v-61h-88h-74v-474h-74v474h-68v61h68v41c2 53.333 21.667 96.166 59 128.499
s82.666 48.833 135.999 49.5c8.66699 0 33.667 -1.33301 75 -4s70.333 -4 87 -4z" />
    <glyph glyph-name=".null" horiz-adv-x="0" 
 />
    <glyph glyph-name="nonmarkingreturn" horiz-adv-x="333" 
 />
    <glyph glyph-name="uni00B5" horiz-adv-x="617" 
d="M442 537l75.998 -0.00195312v-524l-66 -15c-4.66699 10.667 -14.167 19.334 -28.5 26.001s-29.5 10 -45.5 10c-16.667 0 -39 -6 -67 -18s-52.667 -18 -74 -18c-23.333 0 -44 3.66699 -62 11v-228h-76v757h76v-1v-348c0 -40.667 5.33301 -70 16 -88s32.334 -27 65.001 -27
c14 0 33.5 4.16699 58.5 12.5s43.833 12.5 56.5 12.5s24.834 -1.66699 36.501 -5s20.5 -6.66602 26.5 -9.99902l8 -5v458z" />
    </font>
</defs>
</svg>
